<svg height="491pt" viewBox="0 0 491 491.724" width="491pt" xmlns="http://www.w3.org/2000/svg"><path d="m360.101562 297.882812c10.042969-6.769531 15.183594-14.570312 15.289063-23.214843.164063-13.644531-12.632813-24.730469-18.207031-28.90625 3.609375-12.742188 2.796875-23.394531-2.421875-31.695313-6.121094-9.722656-16.496094-13.183594-21.148438-14.285156 1.851563-7.003906 1.378907-13.054688-1.429687-18.085938-6.007813-10.757812-20.804688-13.042968-27.726563-13.511718-1.671875-11.027344-6.199219-18.371094-13.484375-21.847656-13.097656-6.257813-30.589844 2.730468-36.714844 6.335937-6.125-3.605469-23.621093-12.59375-36.71875-6.335937-.910156.4375-1.777343.929687-2.601562 1.484374-.070312.046876-.136719.113282-.203125.160157-.746094.515625-1.464844 1.066406-2.136719 1.683593-.101562.09375-.179687.203126-.28125.296876-.625.59375-1.238281 1.21875-1.800781 1.90625-.101563.121093-.179687.269531-.277344.394531-.539062.6875-1.0625 1.394531-1.539062 2.167969-.117188.191406-.214844.410156-.324219.605468-.433594.742188-.855469 1.488282-1.234375 2.304688-.09375.210937-.171875.457031-.265625.671875-.363281.835937-.722656 1.683593-1.027344 2.59375-.0625.171875-.101562.371093-.15625.546875-.316406.988281-.621094 1.996094-.875 3.0625-.042968.1875-.070312.398437-.109375.585937-.242187 1.074219-.464843 2.167969-.640625 3.324219-6.015625.316406-17.789062 2.011719-24.722656 9.585938-.210938.222656-.414062.441406-.613281.667968-.234375.277344-.507813.5-.722657.792969-.527343.699219-.996093 1.433594-1.421874 2.183594-.070313.125-.179688.21875-.246094.347656-.277344.496094-.449219 1.039063-.679688 1.554687-.054687.128907-.117187.257813-.171875.394532-1.925781 4.558594-2.113281 9.871094-.566406 15.894531.019531.078125.027344.148437.042969.226563-2.027344.472656-5.191406 1.453124-8.605469 3.175781-.058594.023437-.117187.019531-.171875.046875-.214844.109375-.4375.25-.652344.367187-.390625.207031-.773437.429688-1.164062.65625-.554688.320313-1.097656.671875-1.65625 1.039063-.40625.269531-.800782.539062-1.199219.828125-.570313.414062-1.125.871093-1.6875 1.335937-.367187.308594-.734375.601563-1.09375.933594-.625.570312-1.21875 1.203125-1.8125 1.851562-.269531.292969-.546875.558594-.808594.867188-.753906.894531-1.46875 1.867188-2.140625 2.90625-.066406.105469-.152344.191406-.21875.296875-.007812.015625-.011718.03125-.019531.042969-.289063.453125-.527344.976562-.796875 1.457031-.363281.664063-.734375 1.320313-1.046875 2.015625-.183594.410156-.335937.863281-.503906 1.292969-.34375.871093-.660157 1.75-.925781 2.65625-.113282.410156-.214844.832031-.320313 1.257812-.257813 1.058594-.464844 2.144531-.621094 3.25-.035156.242188-.105469.449219-.132812.691407-.007813.070312.019531.128906.015625.195312-.644532 5.640625-.03125 11.917969 1.921875 18.835938-5.222657 3.914062-16.796875 13.898437-18.089844 26.378906-.089844.832031-.128906 1.675781-.117187 2.527344.105468 8.644531 5.25 16.441406 15.292968 23.214843-1.207031 4.894531-2.453125 14.640625 2.855469 24.8125 6.578125 12.59375 20.789063 21.511719 42.269531 26.527344 3.324219 3.625 14.660156 14.296875 32.730469 14.296875 8.03125 0 17.410156-2.15625 27.988281-7.925781 10.582032 5.769531 19.957032 7.925781 27.988282 7.925781 18.070312 0 29.40625-10.667969 32.730468-14.296875 21.476563-5.011719 35.699219-13.933594 42.265625-26.527344 5.316407-10.183593 4.070313-19.929687 2.863281-24.824219zm0 0" fill="#e6e7e8"/><path d="m224.695312 67.878906c5.320313 3.925782 12.851563 2.789063 16.777344-2.539062l.75-1.011719v35.390625c0 6.617188 5.382813 12 12 12 6.617188 0 12-5.382812 12-12v-35.390625l.746094 1.011719c3.777344 5.125 11.621094 6.332031 16.78125 2.535156 5.324219-3.921875 6.464844-11.449219 2.539062-16.773438l-22.40625-30.410156c-2.164062-2.933594-5.777343-4.691406-9.660156-4.691406-3.882812 0-7.496094 1.757812-9.660156 4.695312l-22.410156 30.410157c-3.921875 5.324219-2.78125 12.847656 2.542968 16.773437zm0 0" fill="#e6e7e8"/><path d="m283.746094 439.839844c-5.148438-3.792969-13-2.582032-16.777344 2.539062l-.746094 1.011719v-35.390625c0-6.617188-5.382812-12-12-12-6.617187 0-12 5.382812-12 12v35.390625l-.75-1.011719c-3.929687-5.316406-11.453125-6.453125-16.777344-2.535156-5.324218 3.925781-6.464843 11.453125-2.542968 16.777344l22.410156 30.40625c2.164062 2.941406 5.777344 4.695312 9.660156 4.695312 3.882813 0 7.496094-1.753906 9.660156-4.695312l22.40625-30.40625c3.925782-5.328125 2.785157-12.851563-2.542968-16.78125zm0 0" fill="#e6e7e8"/><path d="m65.703125 266.605469-1.007813-.746094h35.386719c6.617188 0 12-5.382813 12-12s-5.382812-12-12-12h-35.386719l1.015626-.746094c3.050781-2.253906 4.871093-5.871093 4.871093-9.667969 0-2.574218-.808593-5.03125-2.339843-7.113281-1.902344-2.578125-4.691407-4.265625-7.859376-4.746093-3.160156-.472657-6.335937.300781-8.917968 2.203124l-30.402344 22.40625c-2.941406 2.167969-4.699219 5.78125-4.699219 9.664063s1.753907 7.496094 4.699219 9.664063l30.402344 22.40625c2.085937 1.535156 4.554687 2.339843 7.089844 2.339843.601562 0 1.21875-.046875 1.828124-.136719 3.167969-.484374 5.957032-2.167968 7.859376-4.75 3.917968-5.316406 2.785156-12.84375-2.539063-16.777343zm0 0" fill="#e6e7e8"/><path d="m487.382812 244.195312-30.410156-22.40625c-2.578125-1.902343-5.742187-2.671874-8.914062-2.203124-3.167969.480468-5.957032 2.167968-7.863282 4.75-1.53125 2.078124-2.335937 4.535156-2.335937 7.109374 0 3.796876 1.820313 7.410157 4.878906 9.667969l1.011719.746094h-35.386719c-6.617187 0-12 5.382813-12 12s5.382813 12 12 12h35.386719l-1.015625.75c-5.316406 3.929687-6.453125 11.457031-2.53125 16.773437 1.902344 2.582032 4.691406 4.265626 7.859375 4.75.609375.089844 1.222656.136719 1.828125.136719 2.539063 0 5.003906-.804687 7.082031-2.339843l30.410156-22.410157c2.9375-2.167969 4.699219-5.78125 4.699219-9.664062 0-3.882813-1.757812-7.492188-4.699219-9.660157zm0 0" fill="#e6e7e8"/><path d="m136.746094 354.367188-25.027344 25.023437.191406-1.242187c.5625-3.757813-.703125-7.601563-3.386718-10.285157-1.816407-1.820312-4.128907-2.988281-6.6875-3.375-3.15625-.472656-6.328126.304688-8.917969 2.203125-2.578125 1.90625-4.265625 4.691406-4.742188 7.863282l-5.660156 37.339843c-.554687 3.613281.761719 7.414063 3.511719 10.15625 2.332031 2.332031 5.421875 3.632813 8.515625 3.632813.546875 0 1.089843-.039063 1.632812-.125l37.34375-5.65625c6.542969-.992188 11.058594-7.117188 10.070313-13.660156-.988282-6.53125-7.148438-11.039063-13.660156-10.070313l-1.246094.1875 25.027344-25.023437c2.261718-2.269532 3.515624-5.28125 3.515624-8.488282 0-3.207031-1.253906-6.21875-3.515624-8.484375-4.675782-4.675781-12.285157-4.675781-16.964844.003907zm0 0" fill="#e6e7e8"/><path d="m363.214844 156.859375c3.074218 0 6.144531-1.167969 8.484375-3.507813l25.027343-25.023437-.191406 1.246094c-.980468 6.546875 3.539063 12.667969 10.074219 13.660156 3.164063.476563 6.332031-.300781 8.917969-2.203125 2.578125-1.902344 4.261718-4.691406 4.742187-7.859375l5.660157-37.34375c.550781-3.613281-.765626-7.414063-3.511719-10.15625-2.742188-2.746094-6.5625-4.046875-10.148438-3.507813l-37.34375 5.65625c-6.542969.992188-11.058593 7.121094-10.066406 13.660157.386719 2.554687 1.550781 4.867187 3.371094 6.6875 2.6875 2.683593 6.53125 3.957031 10.285156 3.382812l1.246094-.1875-25.027344 25.023438c-2.265625 2.269531-3.515625 5.28125-3.515625 8.488281 0 3.210938 1.25 6.222656 3.515625 8.484375 2.335937 2.332031 5.40625 3.5 8.480469 3.5zm0 0" fill="#e6e7e8"/><path d="m88.175781 133.167969c.988281 6.535156 7.101563 11.046875 13.660157 10.0625 6.535156-.988281 11.054687-7.113281 10.070312-13.664063l-.1875-1.238281 25.027344 25.023437c2.339844 2.339844 5.410156 3.507813 8.484375 3.507813 3.070312 0 6.144531-1.167969 8.484375-3.507813 2.261718-2.265624 3.515625-5.28125 3.515625-8.488281s-1.253907-6.21875-3.515625-8.484375l-25.027344-25.027344 1.246094.1875c3.746094.574219 7.59375-.699218 10.28125-3.382812 1.824218-1.820312 2.988281-4.132812 3.375-6.6875.992187-6.539062-3.523438-12.667969-10.066406-13.660156l-37.339844-5.65625c-3.617188-.546875-7.414063.757812-10.152344 3.507812-2.75 2.746094-4.066406 6.542969-3.511719 10.15625zm0 0" fill="#e6e7e8"/><path d="m420.269531 374.554688c-.988281-6.539063-7.109375-11.054688-13.664062-10.066407-2.554688.386719-4.867188 1.554688-6.679688 3.371094-2.6875 2.683594-3.953125 6.53125-3.386719 10.292969l.1875 1.238281-25.027343-25.023437c-4.679688-4.679688-12.289063-4.675782-16.96875 0-2.265625 2.269531-3.515625 5.28125-3.515625 8.488281s1.25 6.21875 3.515625 8.484375l25.027343 25.027344-1.25-.1875c-6.542968-.988282-12.667968 3.539062-13.652343 10.074218-.992188 6.539063 3.523437 12.667969 10.066406 13.65625l37.339844 5.65625c.542969.085938 1.089843.125 1.636719.125 3.085937 0 6.183593-1.300781 8.515624-3.632812 2.746094-2.746094 4.0625-6.542969 3.511719-10.15625zm0 0" fill="#e6e7e8"/><path d="m238.246094 141.375s42.679687-28.464844 46.652344 14.691406c0 0 38.574218-1.621094 27.738281 30.230469-.097657.296875 2.085937.992187 2.085937.992187s34.695313 4.589844 21.792969 44.074219c0 0 40.492187 25.949219 2.875 48.785157 0 0 15.011719 36.613281-42.570313 49.46875 0 0-20.855468 27.363281-58.570312 5.414062v-193.65625zm0 0" fill="#fff"/><path d="m324.515625 239.359375c9.683594-29.628906-7.4375-39.605469-16.585937-42.746094l-.296876-.097656c-1.386718-.464844-2.5625-.757813-3.421874-.949219.816406-2.433594 1.261718-5.023437 1.261718-7.71875 0-13.921875-11.75-25.210937-26.25-25.210937-2.214844 0-4.355468.292969-6.414062.789062-2.835938-27.480469-21.722656-25.140625-34.5625-20.144531v191.746094c19.328125 11.246094 34.210937 9.535156 44.148437 5.203125 1.597657-1.542969 2.421875-2.621094 2.421875-2.621094 1.457032-.324219 2.835938-.675781 4.203125-1.035156 5.125-3.480469 7.796875-6.964844 7.796875-6.964844 8.714844-1.945313 15.742188-4.441406 21.433594-7.265625 16.84375-15.386719 9.136719-34.203125 9.136719-34.203125 37.621093-22.832031-2.871094-48.78125-2.871094-48.78125zm0 0" fill="#ffd7e5"/><path d="m238.265625 141.375s-42.679687-28.464844-46.652344 14.691406c0 0-38.574219-1.621094-27.738281 30.230469.097656.296875-2.085938.992187-2.085938.992187s-34.695312 4.589844-21.792968 44.074219c0 0-40.488282 25.949219-2.875 48.785157 0 0-15.011719 36.613281 42.570312 49.46875 0 0 20.855469 27.363281 58.570313 5.414062v-193.65625zm0 0" fill="#fff"/><path d="m152.003906 239.359375c-9.6875-29.628906 7.433594-39.605469 16.582032-42.746094l.296874-.097656c1.386719-.464844 2.5625-.757813 3.421876-.949219-.816407-2.433594-1.261719-5.023437-1.261719-7.71875 0-13.921875 11.75-25.210937 26.25-25.210937 2.21875 0 4.355469.292969 6.414062.789062 2.835938-27.480469 21.722657-25.140625 34.5625-20.144531v191.746094c-19.328125 11.246094-34.210937 9.535156-44.148437 5.203125-1.597656-1.542969-2.421875-2.621094-2.421875-2.621094-1.457031-.324219-2.835938-.675781-4.203125-1.035156-5.125-3.480469-7.796875-6.964844-7.796875-6.964844-8.714844-1.945313-15.742188-4.441406-21.433594-7.265625-16.84375-15.386719-9.136719-34.203125-9.136719-34.203125-37.617187-22.832031 2.875-48.78125 2.875-48.78125zm0 0" fill="#fa759e"/><path d="m267.070312 37.476562-22.410156-30.410156c-3.015625-4.089844-9.867187-4.089844-12.882812 0l-22.40625 30.410156c-2.621094 3.554688-1.859375 8.5625 1.695312 11.183594 3.554688 2.621094 8.5625 1.859375 11.1875-1.691406l7.96875-10.808594v47.5625c0 4.417969 3.582032 8 8 8 4.414063 0 8-3.582031 8-8v-47.5625l7.964844 10.808594c1.570312 2.128906 3.992188 3.25 6.445312 3.25 1.648438 0 3.308594-.507812 4.742188-1.558594 3.554688-2.621094 4.316406-7.628906 1.695312-11.183594zm0 0" fill="#6dc9f7"/><path d="m267.070312 438.242188-22.410156 30.410156c-3.015625 4.089844-9.867187 4.089844-12.882812 0l-22.40625-30.410156c-2.621094-3.554688-1.859375-8.5625 1.695312-11.183594 3.554688-2.617188 8.5625-1.859375 11.1875 1.695312l7.96875 10.804688v-47.5625c0-4.417969 3.582032-8 8-8 4.414063 0 8 3.582031 8 8v47.5625l7.964844-10.804688c1.570312-2.128906 3.992188-3.253906 6.445312-3.253906 1.648438 0 3.308594.507812 4.742188 1.558594 3.554688 2.621094 4.316406 7.628906 1.695312 11.183594zm0 0" fill="#6dc9f7"/><path d="m37.839844 209.011719-30.410156 22.410156c-4.089844 3.015625-4.089844 9.867187 0 12.882813l30.410156 22.40625c3.554687 2.621093 8.5625 1.859374 11.183594-1.695313 2.617187-3.554687 1.859374-8.5625-1.695313-11.1875l-10.804687-7.96875h47.5625c4.417968 0 8-3.582031 8-8 0-4.414063-3.582032-8-8-8h-47.5625l10.804687-7.964844c2.128906-1.570312 3.253906-3.992187 3.253906-6.445312 0-1.648438-.507812-3.308594-1.558593-4.742188-2.621094-3.554687-7.628907-4.316406-11.183594-1.695312zm0 0" fill="#6dc9f7"/><path d="m438.605469 209.011719 30.410156 22.410156c4.089844 3.015625 4.089844 9.867187 0 12.882813l-30.410156 22.40625c-3.554688 2.621093-8.5625 1.859374-11.183594-1.695313s-1.859375-8.5625 1.691406-11.1875l10.8125-7.96875h-47.5625c-4.417969 0-8-3.582031-8-8 0-4.414063 3.582031-8 8-8h47.5625l-10.808593-7.964844c-2.128907-1.570312-3.25-3.992187-3.25-6.445312 0-1.648438.507812-3.308594 1.558593-4.742188 2.617188-3.554687 7.625-4.316406 11.179688-1.695312zm0 0" fill="#6dc9f7"/><path d="m76.128906 359.15625-5.65625 37.34375c-.761718 5.027344 4.085938 9.871094 9.109375 9.109375l37.34375-5.65625c4.367188-.660156 7.371094-4.742187 6.710938-9.109375-.660157-4.367188-4.738281-7.367188-9.105469-6.710938l-13.277344 2.011719 33.632813-33.632812c3.125-3.125 3.125-8.1875 0-11.3125s-8.1875-3.125-11.3125 0l-33.632813 33.632812 2.011719-13.277343c.398437-2.613282-.523437-5.121094-2.257813-6.859376-1.164062-1.164062-2.703124-1.980468-4.453124-2.246093-4.371094-.664063-8.449219 2.339843-9.113282 6.707031zm0 0" fill="#6dc9f7"/><path d="m359.519531 75.769531 37.34375-5.65625c5.027344-.765625 9.871094 4.082031 9.105469 9.105469l-5.65625 37.34375c-.660156 4.371094-4.738281 7.375-9.105469 6.714844-4.367187-.660156-7.367187-4.742188-6.714843-9.109375l2.015624-13.277344-33.632812 33.632813c-3.125 3.125-8.1875 3.125-11.3125 0s-3.125-8.1875 0-11.3125l33.632812-33.632813-13.277343 2.015625c-2.617188.394531-5.125-.527344-6.859375-2.261719-1.164063-1.164062-1.980469-2.699219-2.25-4.453125-.664063-4.371094 2.339844-8.449218 6.710937-9.109375zm0 0" fill="#6dc9f7"/><path d="m116.925781 75.769531-37.34375-5.65625c-5.027343-.765625-9.871093 4.082031-9.109375 9.105469l5.65625 37.34375c.660156 4.371094 4.742188 7.375 9.109375 6.714844 4.367188-.660156 7.367188-4.742188 6.710938-9.109375l-2.011719-13.277344 33.632812 33.632813c3.125 3.125 8.1875 3.125 11.3125 0s3.125-8.1875 0-11.3125l-33.632812-33.632813 13.277344 2.015625c2.613281.394531 5.121094-.527344 6.859375-2.261719 1.164062-1.164062 1.980469-2.699219 2.246093-4.453125.664063-4.371094-2.339843-8.449218-6.707031-9.109375zm0 0" fill="#6dc9f7"/><path d="m400.3125 359.15625 5.65625 37.34375c.765625 5.027344-4.082031 9.871094-9.105469 9.109375l-37.34375-5.65625c-4.371093-.660156-7.375-4.742187-6.714843-9.109375.660156-4.367188 4.742187-7.367188 9.109374-6.710938l13.277344 2.011719-33.632812-33.632812c-3.125-3.125-3.125-8.1875 0-11.3125s8.1875-3.125 11.3125 0l33.632812 33.632812-2.015625-13.277343c-.394531-2.613282.527344-5.121094 2.261719-6.859376 1.164062-1.164062 2.699219-1.980468 4.453125-2.246093 4.371094-.664063 8.449219 2.339843 9.109375 6.707031zm0 0" fill="#6dc9f7"/><g fill="#3a2c60"><path d="m344.101562 281.882812c10.046876-6.769531 15.1875-14.570312 15.292969-23.214843.164063-13.648438-12.636719-24.730469-18.210937-28.90625 3.609375-12.742188 2.796875-23.394531-2.421875-31.695313-6.121094-9.722656-16.496094-13.183594-21.148438-14.285156 1.851563-7.003906 1.378907-13.054688-1.429687-18.085938-6.007813-10.757812-20.804688-13.042968-27.726563-13.511718-1.671875-11.027344-6.199219-18.371094-13.480469-21.847656-13.085937-6.25-30.589843 2.730468-36.71875 6.335937-6.125-3.605469-23.621093-12.59375-36.71875-6.335937-7.28125 3.476562-11.808593 10.820312-13.480468 21.847656-6.917969.472656-21.714844 2.753906-27.722656 13.511718-4.992188 8.933594-2.609376 21.078126 7.078124 36.089844 1.191407 1.851563 3.675782 2.382813 5.527344 1.191406 1.855469-1.199218 2.394532-3.671874 1.191406-5.53125-5.460937-8.46875-11.082031-20.171874-6.820312-27.832031 3.722656-6.683593 14.167969-8.882812 20.664062-9.402343.609376 4.71875 2.230469 12.4375 6.535157 17.484374 4.949219 5.804688 12.4375 14.574219 11.765625 21.214844-.246094 2.445313-1.632813 4.625-4.238282 6.660156-12.816406 10.003907-15.714843 20.777344-16.261718 26.660157-2.304688.207031-4.542969.738281-6.558594 1.589843-8.328125 3.519532-13.003906 11.40625-11.628906 19.628907.425781 2.53125 1.292968 5.089843 2.574218 7.613281.785157 1.546875.542969 2.421875.152344 3.144531-3.011718 5.640625-20.179687 10.164063-32.246094 11.785157-8.476562-5.417969-12.863281-11.261719-12.949218-17.398438-.167969-12.628906 16.871094-23.753906 17.042968-23.863281 1.535157-.984375 2.210938-2.878907 1.640626-4.605469-.75-2.304688-1.355469-4.558594-1.789063-6.695312-.4375-2.167969-2.566406-3.566407-4.71875-3.121094-2.167969.4375-3.5625 2.550781-3.117187 4.71875.308593 1.542968.699218 3.132812 1.160156 4.746094-5.582032 4.175781-18.382813 15.257812-18.21875 28.90625.105468 8.644531 5.25 16.441406 15.292968 23.214843-1.207031 4.894531-2.453124 14.640625 2.855469 24.8125 6.578125 12.59375 20.789063 21.511719 42.269531 26.527344 3.324219 3.625 14.660157 14.296875 32.730469 14.296875 8.03125 0 17.410157-2.15625 27.988281-7.925781 10.582032 5.769531 19.957032 7.925781 27.988282 7.925781 18.070312 0 29.40625-10.667969 32.730468-14.296875 21.480469-5.011719 35.699219-13.933594 42.269532-26.527344 5.308594-10.183593 4.058594-19.929687 2.855468-24.824219zm-34.90625-112.28125c4.277344 7.660157-1.34375 19.371094-6.8125 27.847657-1.175781 1.820312-.6875 4.242187 1.09375 5.464843 1.789063 1.226563 4.226563.804688 5.496094-.941406l7.453125-10.234375c3.75.992188 11.296875 3.765625 15.597657 10.652344 4.246093 6.800781 4.46875 16.128906.683593 27.734375-.570312 1.730469.105469 3.628906 1.644531 4.605469 4.777344 3.066406 17.164063 13.324219 17.039063 23.84375-.078125 6.144531-4.464844 11.996093-12.949219 17.417969-12.066406-1.621094-29.230468-6.144532-32.246094-11.785157-.390624-.71875-.632812-1.597656.152344-3.144531 1.277344-2.523438 2.144532-5.082031 2.574219-7.617188 1.375-8.222656-3.296875-16.105468-11.628906-19.625-2.019531-.855468-4.257813-1.382812-6.558594-1.589843-.542969-5.882813-3.445313-16.660157-16.261719-26.660157-2.601562-2.035156-3.992187-4.210937-4.238281-6.660156-.671875-6.640625 6.816406-15.410156 11.769531-21.214844 4.304688-5.046874 5.925782-12.765624 6.53125-17.488281 6.507813.523438 16.917969 2.691407 20.660156 9.394531zm-125.5 158.550782v-28.816406c.640626-1.957032 3.542969-9.757813 9.328126-11.089844 5.40625-1.242188 12.796874 3.289062 21.363281 13.117187 1.449219 1.667969 3.984375 1.832031 5.640625.390625 1.667968-1.449218 1.84375-3.976562.390625-5.644531-10.769531-12.375-20.601563-17.632813-29.191407-15.660156-11.320312 2.605469-15.234374 16.648437-15.398437 17.242187-.085937.339844-.132813.691406-.132813 1.042969v25.738281c-16.933593-4.523437-28.15625-11.675781-33.273437-21.359375-4.242187-8.042969-3.15625-15.738281-2.246094-19.332031 8.820313-1.257812 31.664063-5.453125 37.195313-15.800781 1.769531-3.316407 1.746094-6.964844-.078125-10.542969-.914063-1.796875-1.527344-3.585938-1.816407-5.3125-.921874-5.546875 3.113282-9.355469 6.851563-10.9375 4.050781-1.710938 10.070313-1.921875 13.753906 3.082031 1.242188 1.691407 2.082031 3.742188 2.492188 6.089844.992187 5.625 3.636719 9.96875 7.863281 12.914063 8.121094 5.664062 19.125 3.742187 19.589844 3.660156 2.171875-.398438 3.613281-2.476563 3.222656-4.652344-.398438-2.171875-2.480469-3.617188-4.652344-3.222656-.082031.011718-8.25 1.371094-13.582031-2.347656-2.453125-1.707032-3.941406-4.238282-4.558594-7.734376-.628906-3.574218-1.945312-6.75-3.925781-9.441406-2.4375-3.3125-5.527344-5.332031-8.816406-6.417968.332031-4.117188 2.417968-12.785157 13.25-21.242188 4.355468-3.398438 6.804687-7.492188 7.277344-12.160156.9375-9.269532-5.921876-18.164063-13.644532-27.210938-3.632812-4.257812-4.792968-12.976562-4.960937-16.3125.949219-9.839844 4.085937-16.117187 9.34375-18.632812 8.769531-4.195313 22.726562 2.136718 29.269531 6.015625v189.128906c-29.3125 15.898437-46.671875-.265625-50.554688-4.550781zm150.453126-25.15625c-5.078126 9.738281-16.332032 16.933594-33.332032 21.476562v-25.738281c0-.351563-.046875-.703125-.132812-1.042969-.164063-.59375-4.078125-14.636718-15.398438-17.242187-8.582031-1.964844-18.414062 3.285156-29.191406 15.660156-1.453125 1.667969-1.277344 4.191406.390625 5.644531 1.664063 1.445313 4.195313 1.28125 5.640625-.390625 8.550781-9.808593 15.925781-14.335937 21.339844-13.125 5.238281 1.191407 8.390625 8.003907 9.351562 11.074219v28.855469c-3.859375 4.324219-21.070312 20.53125-50.550781 4.539062v-189.132812c6.546875-3.875 20.503906-10.207031 29.269531-6.015625 5.257813 2.515625 8.394532 8.792968 9.34375 18.632812-.171875 3.332032-1.328125 12.050782-4.960937 16.308594-7.722657 9.046875-14.582031 17.941406-13.644531 27.210938.472656 4.667968 2.921874 8.761718 7.277343 12.160156 10.847657 8.46875 12.921875 17.144531 13.253907 21.242187-3.289063 1.085938-6.382813 3.105469-8.820313 6.414063-1.976563 2.691406-3.300781 5.867187-3.929687 9.445312-2.195313 12.503906-16.527344 10.363282-18.140626 10.082032-2.164062-.40625-4.257812 1.050781-4.652343 3.222656s1.050781 4.253906 3.222656 4.652344c.464844.085937 11.46875 2.003906 19.589844-3.660157 4.226562-2.945312 6.871093-7.289062 7.863281-12.914062.414062-2.351563 1.253906-4.398438 2.496094-6.085938 3.683594-5.007812 9.710937-4.792969 13.75-3.085937 3.742187 1.582031 7.777344 5.390625 6.851562 10.933594-.289062 1.726562-.902344 3.515624-1.816406 5.316406-1.820312 3.582031-1.847656 7.226562-.078125 10.542968 5.535156 10.34375 28.363281 14.539063 37.1875 15.796876.902344 3.578124 1.988281 11.234374-2.179687 19.222656zm0 0"/><path d="m136.886719 215.183594c.160156.015625.320312.027344.476562.027344 2 0 3.726563-1.496094 3.964844-3.523438.941406-7.898438 5.148437-13.8125 12.496094-17.570312 1.96875-1.003907 2.75-3.417969 1.746093-5.382813-1.003906-1.960937-3.417968-2.746094-5.382812-1.738281-6.785156 3.46875-15.210938 10.402344-16.800781 23.742187-.265625 2.191407 1.304687 4.183594 3.5 4.445313zm0 0"/><path d="m208.695312 51.878906c5.320313 3.921875 12.851563 2.789063 16.777344-2.539062l.75-1.011719v35.390625c0 6.617188 5.382813 12 12 12 6.617188 0 12-5.382812 12-12v-35.390625l.746094 1.011719c3.777344 5.125 11.625 6.332031 16.78125 2.535156 5.324219-3.921875 6.464844-11.449219 2.539062-16.773438l-22.40625-30.410156c-2.164062-2.933594-5.777343-4.691406-9.660156-4.691406-3.882812 0-7.496094 1.757812-9.660156 4.695312l-22.410156 30.410157c-3.921875 5.324219-2.78125 12.847656 2.542968 16.773437zm3.898438-12.03125 22.410156-30.40625c1.335938-1.808594 5.105469-1.808594 6.441406 0l22.410157 30.40625c1.300781 1.777344.921875 4.285156-.847657 5.59375-1.746093 1.28125-4.332031.871094-5.597656-.84375l-7.964844-10.808594c-1.023437-1.394531-2.835937-1.960937-4.46875-1.429687-1.648437.539063-2.753906 2.074219-2.753906 3.800781v47.5625c0 2.207032-1.792968 4-4 4-2.207031 0-4-1.792968-4-4v-47.5625c0-1.726562-1.109375-3.261718-2.753906-3.800781-.414062-.136719-.832031-.199219-1.25-.199219-1.25 0-2.453125.582032-3.222656 1.628906l-7.960938 10.804688c-1.3125 1.773438-3.820312 2.152344-5.59375.851562-1.777344-1.3125-2.15625-3.820312-.847656-5.597656zm0 0"/><path d="m267.746094 423.839844c-5.148438-3.796875-13-2.582032-16.777344 2.539062l-.746094 1.011719v-35.390625c0-6.617188-5.382812-12-12-12-6.617187 0-12 5.382812-12 12v35.390625l-.75-1.011719c-3.929687-5.320312-11.457031-6.457031-16.777344-2.535156-5.324218 3.925781-6.464843 11.453125-2.542968 16.777344l22.410156 30.40625c2.164062 2.941406 5.777344 4.695312 9.660156 4.695312 3.882813 0 7.496094-1.753906 9.660156-4.695312l22.40625-30.40625c3.925782-5.328125 2.785157-12.851563-2.542968-16.78125zm-3.894532 12.03125-22.410156 30.410156c-1.335937 1.808594-5.105468 1.808594-6.445312 0l-22.40625-30.410156c-1.304688-1.773438-.925782-4.28125.851562-5.589844.710938-.523438 1.539063-.777344 2.363282-.777344 1.234374 0 2.445312.5625 3.234374 1.625l7.964844 10.808594c1.023438 1.390625 2.839844 1.960938 4.464844 1.425781 1.640625-.539062 2.753906-2.070312 2.753906-3.800781v-47.5625c0-2.203125 1.792969-4 4-4 2.207032 0 4 1.796875 4 4v47.5625c0 1.730469 1.105469 3.261719 2.75 3.800781 1.640625.527344 3.445313-.035156 4.46875-1.425781l7.964844-10.808594c1.269531-1.722656 3.863281-2.128906 5.589844-.847656 1.78125 1.308594 2.15625 3.816406.855468 5.589844zm0 0"/><path d="m49.703125 250.605469-1.007813-.746094h35.390626c6.617187 0 12-5.382813 12-12s-5.382813-12-12-12h-35.390626l1.011719-.746094c3.054688-2.253906 4.878907-5.871093 4.878907-9.667969 0-2.578124-.808594-5.039062-2.34375-7.113281-1.902344-2.578125-4.691407-4.265625-7.859376-4.746093-3.164062-.476563-6.335937.300781-8.917968 2.203124l-30.402344 22.40625c-2.945312 2.167969-4.699219 5.78125-4.699219 9.664063s1.753907 7.496094 4.699219 9.664063l30.402344 22.40625c2.085937 1.535156 4.554687 2.339843 7.089844 2.339843.601562 0 1.21875-.046875 1.828124-.136719 3.167969-.484374 5.957032-2.167968 7.859376-4.75 3.917968-5.316406 2.785156-12.84375-2.539063-16.777343zm-3.902344 12.035156c-.636719.859375-1.566406 1.417969-2.621093 1.582031-1.070313.164063-2.109376-.101562-2.96875-.734375l-30.410157-22.410156c-.898437-.664063-1.4375-1.867187-1.4375-3.21875s.539063-2.554687 1.4375-3.21875l30.410157-22.410156h.003906c.691406-.507813 1.511718-.777344 2.359375-.777344.199219 0 .402343.015625.605469.046875 1.058593.160156 1.984374.722656 2.621093 1.585938.511719.691406.78125 1.507812.78125 2.363281 0 1.285156-.59375 2.464843-1.625 3.226562l-10.808593 7.964844c-1.394532 1.023437-1.964844 2.828125-1.425782 4.46875.539063 1.644531 2.070313 2.75 3.800782 2.75h47.5625c2.207031 0 4 1.796875 4 4s-1.792969 4-4 4h-47.5625c-1.730469 0-3.261719 1.109375-3.800782 2.753906-.539062 1.640625.035156 3.441407 1.425782 4.464844l10.800781 7.960937c1.78125 1.316407 2.164062 3.824219.851562 5.601563zm0 0"/><path d="m471.386719 228.195312-30.410157-22.40625c-5.324218-3.925781-12.855468-2.78125-16.777343 2.546876-1.527344 2.078124-2.335938 4.535156-2.335938 7.109374 0 3.796876 1.824219 7.414063 4.882813 9.667969l1.007812.746094h-35.390625c-6.617187 0-12 5.382813-12 12s5.382813 12 12 12h35.390625l-1.011718.75c-5.324219 3.925781-6.464844 11.453125-2.539063 16.773437 2.351563 3.1875 5.988281 4.878907 9.675781 4.878907 2.472656 0 4.964844-.761719 7.097656-2.332031l30.410157-22.410157c2.9375-2.167969 4.699219-5.78125 4.699219-9.664062 0-3.882813-1.761719-7.492188-4.699219-9.660157zm-4.746094 12.882813-30.40625 22.410156c-1.78125 1.3125-4.285156.921875-5.597656-.847656-1.308594-1.773437-.921875-4.285156.847656-5.59375l10.808594-7.960937c1.398437-1.027344 1.96875-2.828126 1.429687-4.46875-.539062-1.644532-2.078125-2.753907-3.800781-2.753907h-47.5625c-2.210937 0-4-1.796875-4-4s1.789063-4 4-4h47.5625c1.726563 0 3.261719-1.105469 3.800781-2.75.539063-1.640625-.035156-3.445312-1.429687-4.46875l-10.804688-7.964843c-1.035156-.765626-1.625-1.941407-1.625-3.230469 0-.851563.265625-1.671875.773438-2.363281 1.304687-1.769532 3.808593-2.164063 5.597656-.851563l30.40625 22.410156c.90625.667969 1.441406 1.867188 1.441406 3.21875 0 1.351563-.535156 2.550781-1.441406 3.214844zm0 0"/><path d="m120.746094 338.367188-25.027344 25.023437.191406-1.242187c.5625-3.753907-.699218-7.597657-3.390625-10.289063-1.820312-1.820313-4.128906-2.984375-6.683593-3.371094-3.164063-.484375-6.339844.304688-8.914063 2.203125-2.582031 1.90625-4.269531 4.691406-4.746094 7.859375l-5.65625 37.339844c-.554687 3.613281.753907 7.410156 3.503907 10.15625 2.335937 2.335937 5.425781 3.636719 8.523437 3.636719.546875 0 1.089844-.039063 1.632813-.125l37.34375-5.65625c6.542968-.992188 11.058593-7.117188 10.066406-13.660156-.984375-6.53125-7.085938-11.042969-13.660156-10.070313l-1.242188.1875 25.023438-25.023437c2.261718-2.269532 3.515624-5.28125 3.515624-8.488282 0-3.207031-1.253906-6.21875-3.511718-8.484375-4.523438-4.527343-12.433594-4.53125-16.96875.003907zm11.3125 11.3125-33.628906 33.632812c-1.222657 1.222656-1.519532 3.085938-.742188 4.632812.773438 1.539063 2.472656 2.394532 4.167969 2.152344l13.265625-2.011718c2.148437-.316407 4.234375 1.175781 4.566406 3.355468.328125 2.179688-1.175781 4.222656-3.359375 4.554688l-37.347656 5.65625c-1.101563.179687-2.339844-.300782-3.292969-1.257813-.957031-.953125-1.425781-2.183593-1.257812-3.292969l5.65625-37.34375c.160156-1.058593.722656-1.984374 1.585937-2.617187.699219-.511719 1.519531-.785156 2.367187-.785156.199219 0 .398438.015625.597657.046875.855469.128906 1.625.519531 2.234375 1.121094.910156.917968 1.324218 2.167968 1.132812 3.4375l-2.015625 13.273437c-.257812 1.710937.605469 3.394531 2.148438 4.167969 1.550781.78125 3.414062.480468 4.632812-.742188l33.632813-33.632812c1.519531-1.511719 4.144531-1.507813 5.65625 0 .753906.753906 1.171875 1.757812 1.171875 2.828125 0 1.074219-.417969 2.070312-1.171875 2.824219zm0 0"/><path d="m347.214844 140.867188c3.207031 0 6.222656-1.25 8.484375-3.515626l25.027343-25.023437-.191406 1.246094c-.980468 6.546875 3.539063 12.667969 10.074219 13.660156 6.5625 1 12.667969-3.523437 13.660156-10.066406l5.65625-37.34375c.550781-3.613281-.765625-7.414063-3.511719-10.15625-2.742187-2.746094-6.5625-4.046875-10.148437-3.507813l-37.34375 5.65625c-6.542969.992188-11.058594 7.121094-10.066406 13.660156.382812 2.550782 1.550781 4.859376 3.371093 6.6875 2.6875 2.683594 6.53125 3.949219 10.289063 3.382813l1.238281-.1875-25.023437 25.023437c-2.265625 2.269532-3.515625 5.28125-3.515625 8.488282 0 3.207031 1.25 6.222656 3.515625 8.484375 2.261719 2.265625 5.28125 3.511719 8.484375 3.511719zm-2.828125-14.828126 33.632812-33.632812c1.222657-1.21875 1.519531-3.085938.742188-4.628906-.6875-1.363282-2.078125-2.199219-3.570313-2.199219-.203125 0-.402344.019531-.597656.046875l-13.273438 2.011719c-1.25.195312-2.527343-.222657-3.429687-1.132813-.605469-.605468-.996094-1.375-1.125-2.226562-.328125-2.179688 1.175781-4.226563 3.355469-4.558594l37.347656-5.65625c1.117188-.175781 2.34375.304688 3.292969 1.257812.957031.957032 1.429687 2.1875 1.261719 3.300782l-5.65625 37.339844c-.332032 2.179687-2.386719 3.691406-4.5625 3.355468-2.179688-.332031-3.683594-2.375-3.359376-4.554687l2.011719-13.277344c.261719-1.707031-.601562-3.390625-2.148437-4.167969-1.539063-.777344-3.40625-.480468-4.628906.742188l-33.636719 33.636718c-1.496094 1.503907-4.132813 1.511719-5.652344-.003906-.757813-.75-1.171875-1.753906-1.171875-2.828125 0-1.070312.40625-2.066406 1.167969-2.824219zm0 0"/><path d="m72.175781 117.164062c.476563 3.167969 2.167969 5.964844 4.746094 7.863282 2.585937 1.90625 5.753906 2.6875 8.917969 2.203125 6.535156-.988281 11.054687-7.113281 10.070312-13.664063l-.1875-1.238281 25.027344 25.023437c2.265625 2.269532 5.28125 3.515626 8.484375 3.515626 3.207031 0 6.222656-1.25 8.484375-3.511719 2.261719-2.265625 3.515625-5.28125 3.515625-8.488281 0-3.207032-1.253906-6.21875-3.515625-8.484376l-25.023438-25.023437 1.242188.1875c3.78125.582031 7.601562-.699219 10.28125-3.382813 1.820312-1.816406 2.988281-4.125 3.378906-6.6875.992188-6.539062-3.523437-12.667968-10.066406-13.660156l-37.339844-5.65625c-3.605468-.535156-7.414062.765625-10.160156 3.511719-2.75 2.75-4.058594 6.542969-3.503906 10.152344zm3.511719-41.839843c.953125-.957031 2.164062-1.433594 3.296875-1.257813l37.34375 5.65625c2.183594.332032 3.6875 2.375 3.359375 4.546875-.132812.859375-.523438 1.628907-1.125 2.234375-.914062.90625-2.128906 1.332032-3.433594 1.132813l-13.269531-2.011719c-1.695313-.25-3.394531.605469-4.167969 2.152344-.777344 1.542968-.480468 3.410156.742188 4.628906l33.628906 33.636719c.753906.753906 1.171875 1.757812 1.171875 2.828125 0 1.074218-.417969 2.074218-1.175781 2.832031-1.503906 1.503906-4.132813 1.511719-5.652344 0l-33.632812-33.632813c-.765626-.765624-1.792969-1.171874-2.828126-1.171874-.609374 0-1.230468.140624-1.804687.429687-1.542969.78125-2.410156 2.460937-2.148437 4.167969l2.011718 13.269531c.324219 2.183594-1.179687 4.230469-3.359375 4.558594-1.066406.167969-2.109375-.101563-2.96875-.734375-.863281-.636719-1.421875-1.566406-1.585937-2.621094l-5.65625-37.34375c-.171875-1.113281.296875-2.34375 1.253906-3.300781zm0 0"/><path d="m404.269531 358.554688c-.988281-6.539063-7.105469-11.050782-13.664062-10.066407-2.554688.390625-4.867188 1.558594-6.679688 3.371094-2.6875 2.683594-3.953125 6.53125-3.386719 10.292969l.1875 1.238281-25.023437-25.019531c-4.527344-4.53125-12.4375-4.535156-16.972656-.003906-2.265625 2.269531-3.515625 5.28125-3.515625 8.488281s1.25 6.21875 3.515625 8.484375l25.023437 25.023437-1.242187-.1875c-6.554688-.984375-12.671875 3.539063-13.65625 10.070313-.992188 6.542968 3.523437 12.667968 10.066406 13.660156l37.339844 5.65625c.542969.085938 1.089843.125 1.636719.125 3.085937 0 6.183593-1.300781 8.515624-3.632812 2.746094-2.746094 4.0625-6.542969 3.511719-10.15625zm-3.511719 41.839843c-.949218.957031-2.160156 1.4375-3.296874 1.257813l-37.34375-5.65625c-2.179688-.332032-3.683594-2.371094-3.355469-4.554688.300781-1.980468 2.015625-3.40625 3.960937-3.40625.199219 0 .394532.015625.59375.042969l13.273438 2.015625c1.683594.246094 3.386718-.609375 4.167968-2.152344.777344-1.546875.480469-3.414062-.742187-4.632812l-33.632813-33.636719c-.757812-.75-1.171874-1.757813-1.171874-2.828125s.414062-2.070312 1.171874-2.828125c1.519532-1.511719 4.152344-1.503906 5.65625 0l33.632813 33.632813c1.222656 1.222656 3.082031 1.515624 4.628906.742187 1.546875-.777344 2.414063-2.457031 2.148438-4.167969l-2.007813-13.265625c-.195312-1.273437.21875-2.523437 1.136719-3.441406.601563-.601563 1.371094-.992187 2.21875-1.121094 2.175781-.335937 4.226563 1.171875 4.5625 3.359375l5.65625 37.34375c.171875 1.109375-.300781 2.347656-1.257813 3.296875zm0 0"/></g></svg>