<svg height="512" viewBox="0 0 64 64" width="512" xmlns="http://www.w3.org/2000/svg"><g id="Fill_Outline" data-name="Fill Outline"><path d="m5 31h4a2 2 0 0 1 2 2v24a0 0 0 0 1 0 0h-8a0 0 0 0 1 0 0v-24a2 2 0 0 1 2-2z" fill="#a1d51c"/><path d="m11 43h15a2 2 0 0 1 2 2v12a0 0 0 0 1 0 0h-17a0 0 0 0 1 0 0v-14a0 0 0 0 1 0 0z" fill="#a1d51c"/><circle cx="7" cy="59" fill="#d0d8da" r="2"/><circle cx="25" cy="59" fill="#d0d8da" r="2"/><path d="m15 31a4 4 0 0 1 4 4v8a0 0 0 0 1 0 0h-8a0 0 0 0 1 0 0v-8a4 4 0 0 1 4-4z" fill="#fcbc04"/><path d="m15 37v-6a4 4 0 0 0 -4 4v8h8v-.35a6 6 0 0 1 -4-5.65z" fill="#e59730"/><path d="m15 35v5a3 3 0 0 0 3 3h5a2 2 0 0 0 2-2 2 2 0 0 0 -2-2h-4v-4a2 2 0 0 0 -2-2 2 2 0 0 0 -2 2z" fill="#f9e109"/><path d="m17 39v-6a2 2 0 0 0 -2 2v5a3 3 0 0 0 3 3h5a2 2 0 0 0 2-2h-6a2 2 0 0 1 -2-2z" fill="#fcbc04"/><circle cx="15" cy="27" fill="#f9e109" r="4"/><path d="m34 53h-2v-4a4 4 0 0 0 -4-4v12h8v-2a2 2 0 0 0 -2-2z" fill="#f9e109"/><path d="m26 43h-15v-10a2 2 0 0 0 -2-2h-2v12a4 4 0 0 0 4 4h17v-2a2 2 0 0 0 -2-2z" fill="#c4f236"/><path d="m18 29a4 4 0 0 1 -4-4 3.93 3.93 0 0 1 .53-1.95 4 4 0 1 0 3.94 5.95 3.75 3.75 0 0 1 -.47 0z" fill="#fcbc04"/><path d="m32 55a2 2 0 0 1 -2-2v-4a2 2 0 0 0 -2-2v10h8v-2z" fill="#fcbc04"/><circle cx="7" cy="59" fill="#93999a" r="1"/><circle cx="25" cy="59" fill="#93999a" r="1"/><path d="m40 29h12v12h-12z" fill="#fcbc04"/><path d="m40 29h12v4h-12z" fill="#57b7eb"/><g fill="#d0d8da"><circle cx="41" cy="59" r="2"/><circle cx="51" cy="59" r="2"/><path d="m34 11h6v8h-6z"/></g><path d="m34 15h6v4h-6z" fill="#c4f236"/><path d="m40 33h8v8h-8z" fill="#d0d8da"/><path d="m52 29h9v5h-9z" fill="#93999a"/><path d="m43 29h-3v4h12v-2h-7a2 2 0 0 1 -2-2z" fill="#4891d3"/><path d="m46 39a4 4 0 0 1 -4-4v-2h-2v8h8v-2z" fill="#93999a"/><path d="m52 29h9v2h-9z" fill="#d0d8da"/><path d="m48 33h4v6h-4z" fill="#f9e109"/><circle cx="51" cy="59" fill="#93999a" r="1"/><circle cx="41" cy="59" fill="#93999a" r="1"/><path d="m34 11h3v4h-3z" fill="#93999a"/><path d="m37 15h-3v4h6v-1a3 3 0 0 1 -3-3z" fill="#a1d51c"/><path d="m11 56h-7v-8a1 1 0 0 0 -2 0v9a1 1 0 0 0 1 1h1.18a3 3 0 1 0 5.64 0h1.18a1 1 0 0 0 0-2zm-3 3a1 1 0 1 1 -1-1 1 1 0 0 1 1 1z" fill="#1f2d51"/><path d="m56 33a1 1 0 0 0 0 2h5a1 1 0 0 0 1-1v-5a1 1 0 0 0 -1-1h-14v-20h7v3a1 1 0 0 0 2 0v-4a1 1 0 0 0 -1-1h-8v-3a1 1 0 0 0 -2 0v3h-8a1 1 0 0 0 -1 1v3h-2a1 1 0 0 0 -1 1v8a1 1 0 0 0 1 1h2v4a14 14 0 0 1 -14 14h-2v-3a5 5 0 0 0 -2-4 5 5 0 1 0 -8-4 5.27 5.27 0 0 0 .17 1.25 1 1 0 0 0 1.94-.5 2.77 2.77 0 0 1 -.11-.75 3 3 0 1 1 3 3 1 1 0 0 0 0 2 3 3 0 0 1 3 3v4a1 1 0 0 0 1 1h4a1 1 0 0 1 0 2h-5a2 2 0 0 1 -2-2v-5a1 1 0 0 0 -2 0v5a3.91 3.91 0 0 0 .56 2h-2.56v-9a3 3 0 0 0 -3-3h-4a3 3 0 0 0 -3 3v11a1 1 0 0 0 2 0v-11a1 1 0 0 1 1-1h4a1 1 0 0 1 1 1v20a1 1 0 0 0 2 0v-9h14a1 1 0 0 1 1 1v11h-12a1 1 0 0 0 0 2h7.18a3 3 0 1 0 5.64 0h.18a1 1 0 0 0 1-1v-10.82a3 3 0 0 1 2 2.82v4a1 1 0 0 0 1 1h2a1 1 0 0 1 1 1v1h-3a1 1 0 0 0 0 2h4a1 1 0 0 0 1-1v-2a3 3 0 0 0 -3-3h-1v-3a5 5 0 0 0 -4.16-4.91 3 3 0 0 0 -2.84-2.09h-.18a3 3 0 0 0 .18-1 2.91 2.91 0 0 0 -.38-1.43 16 16 0 0 0 12.38-15.57v-4h2a1 1 0 0 0 1-1v-8a1 1 0 0 0 -1-1h-2v-2h7v20h-5a1 1 0 0 0 -1 1v12a1 1 0 0 0 1 1h5v11h-4a1 1 0 0 0 -1 1v2.18a3 3 0 1 0 2 0v-1.18h8v1.18a3 3 0 1 0 2 0v-2.18a1 1 0 0 0 -1-1h-4v-11h3v4.39a9.6 9.6 0 0 0 9.61 9.61h1.39a1 1 0 0 0 0-2h-1.39a7.62 7.62 0 0 1 -7.61-7.61v-4.39a1 1 0 0 0 1-1v-3a2 2 0 0 1 2 2v7a4 4 0 0 0 4 4h2a1 1 0 0 0 0-2h-2a2 2 0 0 1 -2-2v-7a4 4 0 0 0 -4-4v-6h7v3zm-30 26a1 1 0 1 1 -1-1 1 1 0 0 1 1 1zm13-41h-4v-2h4zm0-4h-4v-2h4zm2 46a1 1 0 1 1 1-1 1 1 0 0 1 -1 1zm10 0a1 1 0 1 1 1-1 1 1 0 0 1 -1 1zm0-20h-2v-6h2zm-10-10h10v2h-10zm0 10v-2h3a1 1 0 0 0 0-2h-3v-2h6v6z" fill="#1f2d51"/></g></svg>