<svg width="23" height="22" viewBox="0 0 23 22" fill="none" xmlns="http://www.w3.org/2000/svg">
<path d="M14.7236 11.6875H7.84863C7.46913 11.6875 7.16113 11.9955 7.16113 12.375C7.16113 12.7545 7.46913 13.0625 7.84863 13.0625H14.7236C15.1031 13.0625 15.4111 12.7545 15.4111 12.375C15.4111 11.9955 15.1031 11.6875 14.7236 11.6875ZM16.0986 7.5625H6.47363C6.09413 7.5625 5.78613 7.8705 5.78613 8.25C5.78613 8.6295 6.09413 8.9375 6.47363 8.9375H16.0986C16.4781 8.9375 16.7861 8.6295 16.7861 8.25C16.7861 7.8705 16.4781 7.5625 16.0986 7.5625ZM11.2861 0C5.2114 0 0.286133 4.30923 0.286133 9.625C0.286133 12.6631 1.89832 15.3677 4.41113 17.1318V22L9.22982 19.076C9.89672 19.1861 10.5828 19.25 11.2861 19.25C17.3616 19.25 22.2861 14.9408 22.2861 9.625C22.2861 4.30923 17.3616 0 11.2861 0ZM11.2861 17.875C10.4831 17.875 9.70763 17.7815 8.96237 17.6227L5.7256 19.5683L5.76891 16.3797C3.28777 14.8871 1.66113 12.4204 1.66113 9.625C1.66113 5.06895 5.97037 1.375 11.2861 1.375C16.6019 1.375 20.9111 5.06895 20.9111 9.625C20.9111 14.181 16.6019 17.875 11.2861 17.875Z" fill="#838383"/>
</svg>
