<svg width="34" height="35" viewBox="0 0 34 35" fill="none" xmlns="http://www.w3.org/2000/svg">
<path d="M31.0117 4.11746H2.98828C1.3426 4.11746 0 5.4586 0 7.10574V27.0276C0 28.6692 1.33662 30.0159 2.98828 30.0159H31.0117C32.6533 30.0159 34 28.6793 34 27.0276V7.10574C34 5.46418 32.6634 4.11746 31.0117 4.11746ZM30.5991 6.10965L17.0634 19.6454L3.41056 6.10965H30.5991ZM1.99219 26.6151V7.50876L11.5865 17.0208L1.99219 26.6151ZM3.40086 28.0237L13.0012 18.4234L16.3652 21.7584C16.7546 22.1445 17.383 22.1432 17.7708 21.7554L21.0508 18.4754L30.5991 28.0237H3.40086ZM32.0078 26.615L22.4595 17.0667L32.0078 7.51826V26.615Z" fill="#C4C4C4"/>
</svg>
