<?xml version="1.0" encoding="iso-8859-1"?>
<!-- Generator: Adobe Illustrator 19.0.0, SVG Export Plug-In . SVG Version: 6.00 Build 0)  -->
<svg version="1.1" id="Capa_1" xmlns="http://www.w3.org/2000/svg" xmlns:xlink="http://www.w3.org/1999/xlink" x="0px" y="0px"
	 viewBox="0 0 511.998 511.998" style="enable-background:new 0 0 511.998 511.998;" xml:space="preserve">
<path id="SVGCleanerId_0" style="fill:#F5D7B7;" d="M234.068,241.858l0.75-27.408c0.072-2.63-1.231-5.101-3.441-6.529
	c-41.144-26.578-83.313-55.228-114.77-76.723c-3.429-2.343-5.419-6.358-4.965-10.486c1.623-14.739-6.35-30.845-21.487-40.389
	c-20.106-12.676-45.22-8.97-56.094,8.278c-4.35,6.899-5.761,14.92-4.603,22.872c0.599,4.112-1.846,7.99-5.814,9.222
	c-7.675,2.383-14.303,7.114-18.653,14.013C-5.883,151.956,1.6,176.214,21.706,188.89c15.137,9.544,33.107,9.794,45.707,1.975
	c3.529-2.19,8.01-2.124,11.602-0.04c33.34,19.34,78.015,45.413,120.164,71.376c2.479,1.527,5.722,0.199,6.419-2.628l2.138-8.677
	c0.686-2.784,3.189-4.736,6.056-4.724l15.749,0.07C231.991,246.255,234.001,244.308,234.068,241.858z"/>
<g>
	<path id="SVGCleanerId_0_1_" style="fill:#F5D7B7;" d="M234.068,241.858l0.75-27.408c0.072-2.63-1.231-5.101-3.441-6.529
		c-41.144-26.578-83.313-55.228-114.77-76.723c-3.429-2.343-5.419-6.358-4.965-10.486c1.623-14.739-6.35-30.845-21.487-40.389
		c-20.106-12.676-45.22-8.97-56.094,8.278c-4.35,6.899-5.761,14.92-4.603,22.872c0.599,4.112-1.846,7.99-5.814,9.222
		c-7.675,2.383-14.303,7.114-18.653,14.013C-5.883,151.956,1.6,176.214,21.706,188.89c15.137,9.544,33.107,9.794,45.707,1.975
		c3.529-2.19,8.01-2.124,11.602-0.04c33.34,19.34,78.015,45.413,120.164,71.376c2.479,1.527,5.722,0.199,6.419-2.628l2.138-8.677
		c0.686-2.784,3.189-4.736,6.056-4.724l15.749,0.07C231.991,246.255,234.001,244.308,234.068,241.858z"/>
</g>
<path style="opacity:0.05;enable-background:new    ;" d="M205.598,259.575l2.138-8.677c0.18-0.731,0.492-1.4,0.896-1.996
	c-31.104-19.731-102.588-61.515-127.433-80.363c-3.1-2.352-7.043-3.24-10.883-2.612c-40.698,6.663-59.149-19.872-60.115-37.486
	c-1.963,1.84-3.727,3.919-5.209,6.27c-10.874,17.248-3.391,41.506,16.715,54.182c15.137,9.544,33.107,9.794,45.707,1.975
	c3.529-2.19,8.01-2.124,11.602-0.04c33.34,19.339,78.015,45.413,120.164,71.376C201.658,263.73,204.901,262.402,205.598,259.575z"/>
<path style="fill:#F5D7B7;" d="M479.318,313.754c-17.339-4.852-34.738,0.132-44.547,11.368c-2.574,2.949-6.588,4.191-10.394,3.276
	c-44.416-10.677-107.015-25.918-162.174-41.353c-5.257-1.471-10.572-2.979-15.922-4.516c-3.371-0.968-6.51,2.115-5.601,5.502
	l6.28,23.389c0.556,2.069-0.643,4.204-2.699,4.806l-16.201,4.751c-2.424,0.711-4.046,2.989-3.925,5.513l0.554,11.496
	c0.112,2.323,1.713,4.308,3.956,4.919c5.604,1.526,11.16,3.058,16.641,4.592c55.146,15.431,116.549,34.888,160.055,48.813
	c3.829,1.225,6.541,4.518,7.26,8.473c2.655,14.589,14.896,27.747,32.129,32.569c22.889,6.405,45.898-4.321,51.392-23.956
	c2.327-8.315,1.138-16.894-2.743-24.508c-1.544-3.03-0.526-6.668,2.366-8.456c7.27-4.495,12.738-11.211,15.065-19.526
	C516.307,341.269,502.206,320.159,479.318,313.754z"/>
<path style="opacity:0.05;enable-background:new    ;" d="M496.125,413.395c0.908-3.246,1.274-6.532,1.16-9.785
	c-30.248,28.192-62.26,6.771-72.04-17.943c-1.676-4.234-5.468-7.256-9.926-8.182c-37.636-7.813-161.665-43.004-189.811-54.861
	c-0.914,1.04-1.441,2.406-1.37,3.866l0.554,11.496c0.112,2.323,1.713,4.308,3.956,4.919c5.604,1.526,11.16,3.058,16.642,4.592
	c55.146,15.431,116.549,34.888,160.054,48.813c3.829,1.225,6.541,4.518,7.261,8.473c2.655,14.588,14.896,27.746,32.129,32.569
	C467.621,443.756,490.63,433.03,496.125,413.395z"/>
<g style="opacity:0.05;">
	<path d="M365.413,350.411c-0.615,0-1.24-0.076-1.863-0.236c-4.271-1.092-18.604-4.78-23.754-6.373
		c-3.957-1.225-6.172-5.425-4.948-9.382c1.225-3.957,5.423-6.174,9.382-4.948c3.203,0.991,12.031,3.355,23.037,6.172
		c4.014,1.026,6.435,5.111,5.407,9.124C371.808,348.157,368.758,350.411,365.413,350.411z"/>
</g>
<g>
	<path style="fill:#495059;" d="M263.428,204.889c-1.077,0-2.17-0.233-3.208-0.725c-3.743-1.774-5.338-6.247-3.564-9.99
		l12.798-26.998c1.776-3.743,6.247-5.334,9.99-3.564c3.743,1.774,5.339,6.247,3.565,9.99L270.21,200.6
		C268.927,203.305,266.234,204.889,263.428,204.889z"/>
	<path style="fill:#495059;" d="M279.282,243.567c-3.566,0-6.728-2.553-7.375-6.187c-0.726-4.078,1.992-7.973,6.069-8.698
		l31.752-5.65c4.073-0.727,7.973,1.99,8.698,6.069c0.726,4.078-1.992,7.973-6.069,8.698l-31.752,5.65
		C280.161,243.529,279.719,243.567,279.282,243.567z"/>
	<path style="fill:#495059;" d="M166.414,294.221h-22.836c-4.142,0-7.5-3.357-7.5-7.5s3.358-7.5,7.5-7.5h22.836
		c4.142,0,7.5,3.357,7.5,7.5S170.556,294.221,166.414,294.221z"/>
	<path style="fill:#495059;" d="M182.47,340.777c-1.288,0-2.594-0.332-3.786-1.031c-3.573-2.095-4.772-6.689-2.677-10.263
		l6.58-11.225c2.095-3.573,6.691-4.771,10.263-2.677c3.573,2.095,4.772,6.689,2.677,10.263l-6.58,11.225
		C187.551,339.451,185.044,340.777,182.47,340.777z"/>
</g>
<path style="opacity:0.1;enable-background:new    ;" d="M152.253,216.736c-1.356,0-2.73-0.368-3.965-1.14l-13.517-8.441
	c-3.513-2.194-4.583-6.82-2.389-10.334c2.194-3.512,6.82-4.582,10.334-2.389l13.517,8.441c3.513,2.194,4.583,6.82,2.389,10.334
	C157.199,215.485,154.754,216.736,152.253,216.736z"/>
<g>
</g>
<g>
</g>
<g>
</g>
<g>
</g>
<g>
</g>
<g>
</g>
<g>
</g>
<g>
</g>
<g>
</g>
<g>
</g>
<g>
</g>
<g>
</g>
<g>
</g>
<g>
</g>
<g>
</g>
</svg>
