<svg height="489pt" viewBox="-14 0 489 489.102" width="489pt" xmlns="http://www.w3.org/2000/svg"><path d="m344.0625 463.65625v10.246094c0 4.359375 2.632812 8.285156 6.664062 9.941406l1.101563.453125c1.296875.53125 2.683594.804687 4.085937.804687h41.699219c2.917969 0 5.285157-2.367187 5.285157-5.285156 0-1.902344-1.023438-3.65625-2.675782-4.59375l-20.371094-11.566406 9.941407-109.105469h-49.558594zm0 0" fill="#f9cfcf"/><path d="m331.894531 354.550781h-49.5625l9.941407 109.105469-20.367188 11.566406c-1.65625.9375-2.675781 2.691406-2.675781 4.59375 0 2.917969 2.363281 5.285156 5.28125 5.285156h41.425781c1.582031 0 3.148438-.308593 4.609375-.910156 4.546875-1.867187 7.515625-6.296875 7.515625-11.210937v-9.328125zm0 0" fill="#f9cfcf"/><path d="m371.308594 143.050781h-13.222656v-15.105469c-6.492188 3.710938-14.007813 5.835938-22.023438 5.835938s-15.53125-2.128906-22.023438-5.835938v15.105469h-13.21875c-13.058593 0-23.644531 10.585938-23.644531 23.644531v131.253907h117.773438v-131.25c0-13.0625-10.585938-23.648438-23.640625-23.648438zm0 0" fill="#f9cfcf"/><path d="m394.472656 161.539062 29.351563 150.003907c.214843 1.105469.664062 2.152343 1.3125 3.074219l10.285156 14.597656c.476563.675781.730469 1.480468.730469 2.304687v22.371094c0 3.042969-2.269532 5.597656-5.289063 5.960937l-16.875 2.007813c-3.679687.4375-7.355469-.847656-9.960937-3.484375l-6.34375-6.429688c-1.285156-1.300781-1.90625-3.113281-1.6875-4.925781l3.328125-27.773437c.105469-.898438.0625-1.808594-.136719-2.691406l-4.148438-18.601563zm0 0" fill="#f9cfcf"/><path d="m277.746094 161.539062-29.355469 150.003907c-.214844 1.105469-.660156 2.152343-1.3125 3.074219l-10.285156 14.597656c-.476563.675781-.730469 1.480468-.730469 2.304687v22.371094c0 3.042969 2.273438 5.597656 5.289062 5.960937l16.878907 2.007813c3.679687.4375 7.355469-.847656 9.957031-3.484375l5.667969-5.742188c1.714843-1.734374 2.542969-4.152343 2.25-6.574218l-3.210938-26.8125c-.109375-.898438-.0625-1.808594.132813-2.691406l4.148437-18.601563zm0 0" fill="#f9cfcf"/><path d="m394.472656 161.539062 29.351563 150.003907c.214843 1.105469.664062 2.152343 1.3125 3.074219l10.285156 14.597656c.476563.675781.730469 1.480468.730469 2.304687v22.371094c0 3.042969-2.269532 5.597656-5.289063 5.960937l-16.875 2.007813c-3.679687.4375-7.355469-.847656-9.960937-3.484375l-6.34375-6.429688c-1.285156-1.300781-1.90625-3.113281-1.6875-4.925781l3.328125-27.773437c.105469-.898438.0625-1.808594-.136719-2.691406l-4.148438-18.601563zm0 0" fill="#f9cfcf"/><path d="m277.746094 161.539062-29.355469 150.003907c-.214844 1.105469-.660156 2.152343-1.3125 3.074219l-10.285156 14.597656c-.476563.675781-.730469 1.480468-.730469 2.304687v22.371094c0 3.042969 2.273438 5.597656 5.289062 5.960937l16.878907 2.007813c3.679687.4375 7.355469-.847656 9.957031-3.484375l5.667969-5.742188c1.714843-1.734374 2.542969-4.152343 2.25-6.574218l-3.210938-26.8125c-.109375-.898438-.0625-1.808594.132813-2.691406l4.148437-18.601563zm0 0" fill="#f9cfcf"/><path d="m412.527344 365.945312c-4.253906 0-8.304688-1.683593-11.347656-4.765624l-6.34375-6.425782c-2.152344-2.183594-3.175782-5.175781-2.8125-8.214844l3.328124-27.773437c.054688-.453125.035157-.902344-.066406-1.34375l-4.144531-18.601563c-.0625-.28125-.09375-.566406-.097656-.855468l-.074219-18.082032h-109.71875l-.074219 18.082032c-.003906.289062-.035156.574218-.097656.855468l-4.148437 18.601563c-.097657.441406-.121094.890625-.066407 1.347656l3.214844 26.808594c.4375 3.652344-.792969 7.242187-3.375 9.859375l-5.671875 5.742188c-3.496094 3.542968-8.339844 5.230468-13.277344 4.648437l-16.875-2.007813c-5.027344-.601562-8.816406-4.871093-8.816406-9.933593v-22.371094c0-1.660156.503906-3.253906 1.457031-4.609375l10.289063-14.601562c.324218-.460938.542968-.976563.652344-1.53125l29.214843-149.292969c.035157-.175781.074219-.394531.125-.621094.015625-.074219.03125-.144531.050781-.21875 2.800782-12.515625 14.128907-21.59375 26.964844-21.59375h9.21875v-11.105469c0-1.425781.761719-2.746094 1.992188-3.460937 1.234375-.714844 2.753906-.714844 3.992187-.011719 6.074219 3.472656 13.003907 5.308594 20.039063 5.308594 7.03125 0 13.960937-1.835938 20.039062-5.308594 1.234375-.707031 2.753906-.707031 3.992188.011719 1.230468.714843 1.992187 2.035156 1.992187 3.460937v11.105469h9.222657c12.632812 0 23.691406 8.667969 26.785156 20.792969.136718.289062.238281.601562.300781.929687l29.355469 150.003907c.109375.554687.332031 1.074218.65625 1.535156l10.285156 14.597656v.003906c.957031 1.355469 1.460938 2.949219 1.460938 4.609375v22.371094c0 5.0625-3.792969 9.332031-8.816407 9.929687l-16.878906 2.007813c-.640625.078125-1.285156.117187-1.925781.117187zm-13.488282-68.441406 4.054688 18.175782c.292969 1.328124.363281 2.6875.203125 4.039062l-3.328125 27.773438c-.074219.609374.128906 1.207031.5625 1.644531l6.34375 6.425781c1.746094 1.773438 4.171875 2.625 6.636719 2.324219l16.878906-2.007813c1.003906-.121094 1.761719-.972656 1.761719-1.988281v-22.371094l3.269531-2.304687-3.269531 2.304687-10.289063-14.597656c-.972656-1.386719-1.636719-2.9375-1.964843-4.609375l-29.128907-148.859375c-.09375-.226563-.167969-.464844-.214843-.714844-1.859376-9.089843-9.953126-15.6875-19.246094-15.6875h-13.222656c-2.207032 0-4-1.789062-4-4v-8.742187c-11.40625 4.566406-24.632813 4.566406-36.042969 0v8.742187c0 2.210938-1.792969 4-4 4h-13.21875c-9.136719 0-17.203125 6.472657-19.167969 15.390625-.011719.054688-.027344.109375-.042969.164063l-.066406.363281-29.226563 149.339844c-.324218 1.664062-.988281 3.21875-1.96875 4.613281l-10.285156 14.597656v22.371094c0 1.015625.757813 1.871094 1.761719 1.988281l16.875 2.007813c2.464844.308593 4.890625-.550781 6.640625-2.324219l5.667969-5.742188c.859375-.871093 1.269531-2.066406 1.125-3.285156l-3.210938-26.8125c-.164062-1.355468-.09375-2.710937.203125-4.042968l4.050782-18.175782.089843-21.632812c.011719-2.203125 1.796875-3.984375 4-3.984375h117.683594c2.203125 0 3.988281 1.785156 4 3.984375zm0 0" fill="#3762cc"/><path d="m380.8125 72.394531c-.09375 0-.183594.011719-.28125.015625v-4.203125c0-24.558593-19.910156-44.46875-44.46875-44.46875-24.5625 0-44.472656 19.910157-44.472656 44.46875v4.203125c-.09375-.003906-.183594-.015625-.28125-.015625-7.492188 0-13.566406 6.074219-13.566406 13.566407 0 7.492187 6.074218 13.566406 13.566406 13.566406.492187 0 .976562-.03125 1.457031-.078125 4.585937 19.671875 22.222656 34.332031 43.292969 34.332031 21.070312 0 38.707031-14.660156 43.292968-34.332031.480469.050781.964844.078125 1.457032.078125 7.492187 0 13.566406-6.074219 13.566406-13.566406.007812-7.492188-6.066406-13.566407-13.5625-13.566407zm0 0" fill="#f9cfcf"/><path d="m336.066406 137.78125c-21.570312 0-40.199218-13.960938-46.363281-34.324219-8.9375-.816406-15.957031-8.351562-15.957031-17.496093 0-8.410157 5.941406-15.457032 13.847656-17.167969v-.585938c0-26.726562 21.742188-48.46875 48.46875-48.46875s48.46875 21.742188 48.46875 48.46875v.585938c7.90625 1.710937 13.847656 8.757812 13.847656 17.167969 0 9.144531-7.023437 16.679687-15.957031 17.496093-6.164063 20.363281-24.789063 34.324219-46.355469 34.324219zm-43.292968-42.332031c1.835937 0 3.464843 1.265625 3.890624 3.089843 4.289063 18.394532 20.492188 31.242188 39.398438 31.242188s35.109375-12.847656 39.398438-31.242188c.457031-1.964843 2.320312-3.261718 4.316406-3.070312.339844.039062.6875.0625 1.035156.0625 5.277344 0 9.566406-4.292969 9.566406-9.570312 0-5.25-4.253906-9.527344-9.496094-9.566407-.152343.011719-.289062.015625-.351562.015625-1.042969 0-2.050781-.410156-2.796875-1.140625-.769531-.753906-1.203125-1.785156-1.203125-2.859375v-4.203125c0-22.3125-18.152344-40.46875-40.46875-40.46875s-40.46875 18.15625-40.46875 40.46875v4.203125c0 1.074219-.433594 2.105469-1.203125 2.859375-.769531.75-1.738281 1.128907-2.882813 1.140625-.0625-.003906-.25-.011718-.316406-.015625-5.15625 0-9.445312 4.292969-9.445312 9.566407 0 5.277343 4.289062 9.570312 9.566406 9.570312.347656 0 .695312-.023438 1.035156-.0625.140625-.011719.285156-.019531.425782-.019531zm0 0" fill="#3762cc"/><path d="m379.984375 61.285156c.355469 2.253906.546875 4.566406.546875 6.921875v4.203125c.097656-.003906.1875-.015625.285156-.015625 2.628906 0 5.078125.761719 7.160156 2.0625v-13.171875zm0 0" fill="#4671c6"/><path d="m284.152344 61.285156v13.171875c2.078125-1.300781 4.527344-2.0625 7.160156-2.0625.09375 0 .183594.011719.28125.015625v-4.203125c0-2.355469.191406-4.667969.546875-6.921875zm0 0" fill="#4671c6"/><path d="m346.828125 106.859375c-1.65625 0-3-1.34375-3-3 0-1.96875-3.320313-4.175781-7.765625-4.175781s-7.765625 2.207031-7.765625 4.175781c0 1.65625-1.34375 3-3 3s-3-1.34375-3-3c0-5.707031 6.046875-10.175781 13.765625-10.175781s13.765625 4.46875 13.765625 10.175781c0 1.65625-1.34375 3-3 3zm0 0" fill="#3762cc"/><path d="m307.820312 92.683594c-1.109374 0-2.175781-.617188-2.695312-1.679688-.730469-1.488281-.117188-3.285156 1.375-4.015625l7.984375-3.910156-9.121094-4.644531c-1.472656-.75-2.0625-2.558594-1.308593-4.035156.753906-1.476563 2.5625-2.054688 4.035156-1.3125l14.46875 7.371093c1.011718.519531 1.644531 1.5625 1.636718 2.699219-.011718 1.136719-.660156 2.167969-1.679687 2.667969l-13.375 6.554687c-.425781.210938-.875.304688-1.320313.304688zm0 0" fill="#3762cc"/><path d="m364.304688 92.683594c-.445313 0-.890626-.097656-1.316407-.304688l-13.378906-6.554687c-1.019531-.5-1.667969-1.53125-1.679687-2.667969-.007813-1.136719.628906-2.179688 1.640624-2.699219l14.464844-7.371093c1.472656-.742188 3.28125-.164063 4.039063 1.3125.75 1.476562.164062 3.285156-1.3125 4.035156l-9.117188 4.644531 7.984375 3.910156c1.484375.730469 2.101563 2.527344 1.371094 4.015625-.519531 1.0625-1.585938 1.679688-2.695312 1.679688zm0 0" fill="#3762cc"/><path d="m368.929688 61.285156h23.488281c1.738281 0 3.144531-1.410156 3.144531-3.148437v-17.964844c0-19.976563-16.195312-36.171875-36.171875-36.171875h-1.121094c-5.210937 0-9.4375 4.222656-9.4375 9.4375v27.746094c0 11.101562 8.996094 20.101562 20.097657 20.101562zm0 0" fill="#4671c6"/><path d="m320.648438 61.285156h-40.925782c-1.742187 0-3.15625-1.414062-3.15625-3.160156v-14.855469c0-21.683593 17.578125-39.265625 39.265625-39.265625h23.664063c5.203125 0 9.425781 4.21875 9.425781 9.421875v19.585938c0 15.613281-12.660156 28.273437-28.273437 28.273437zm0 0" fill="#4671c6"/><path d="m392.414062 65.28125h-23.484374c-13.289063 0-24.097657-10.808594-24.097657-24.097656v-27.746094c0-7.410156 6.027344-13.4375 13.433594-13.4375h1.125c22.148437 0 40.171875 18.023438 40.171875 40.171875v17.964844c0 3.941406-3.207031 7.144531-7.148438 7.144531zm-34.148437-57.277344c-2.996094 0-5.433594 2.4375-5.433594 5.433594v27.75c0 8.875 7.21875 16.097656 16.097657 16.097656h22.632812v-17.109375c0-17.742187-14.433594-32.171875-32.175781-32.171875zm0 0" fill="#3762cc"/><path d="m320.652344 65.28125h-40.929688c-3.945312 0-7.15625-3.210938-7.15625-7.15625v-14.855469c0-23.859375 19.410156-43.269531 43.269532-43.269531h23.664062c7.402344 0 13.421875 6.023438 13.421875 13.425781v19.585938c0 17.792969-14.476563 32.269531-32.269531 32.269531zm-40.085938-8h40.085938c13.378906 0 24.269531-10.886719 24.269531-24.269531v-19.585938c0-2.992187-2.433594-5.425781-5.421875-5.425781h-23.664062c-19.449219 0-35.269532 15.820312-35.269532 35.269531zm0 0" fill="#3762cc"/><path d="m277.175781 275.886719h117.773438v14.0625h-117.773438zm0 0" fill="#e0ebfc"/><path d="m277.175781 289.949219v62.601562c0 1.105469.894531 2 2 2h52.71875c1.054688 0 1.929688-.824219 1.996094-1.875l2.171875-35.789062 2.175781 35.789062c.0625 1.054688.9375 1.875 1.996094 1.875h52.714844c1.105469 0 2-.894531 2-2v-62.601562zm0 0" fill="#a4c9ff"/><path d="m394.949219 279.886719c-2.203125 0-3.988281-1.78125-4-3.984375l-.476563-114.347656c-.011718-2.207032 1.773438-4.007813 3.980469-4.015626h.019531c2.199219 0 3.988282 1.777344 4 3.980469l.476563 114.347657c.011719 2.210937-1.773438 4.007812-3.980469 4.019531-.007812 0-.015625 0-.019531 0zm0 0" fill="#3762cc"/><path d="m277.265625 279.886719c-2.207031 0-4-1.792969-4-4v-111.902344c0-2.207031 1.792969-4 4-4 2.210937 0 4 1.792969 4 4v111.902344c0 2.207031-1.789063 4-4 4zm0 0" fill="#3762cc"/><path d="m392.949219 358.550781h-52.714844c-1.613281 0-3.085937-.640625-4.167969-1.6875-1.085937 1.042969-2.558594 1.6875-4.171875 1.6875h-52.71875c-3.308593 0-6-2.691406-6-6v-76.664062c0-2.207031 1.792969-4 4-4h117.777344c2.207031 0 4 1.792969 4 4v76.664062c-.003906 3.308594-2.695313 6-6.003906 6zm-50.832031-8h48.832031v-70.664062h-109.773438v70.664062h48.832031l2.0625-33.90625c.125-2.113281 1.875-3.757812 3.992188-3.757812s3.867188 1.644531 3.992188 3.757812zm0 0" fill="#3762cc"/><path d="m397.609375 489.101562h-41.695313c-1.933593 0-3.820312-.375-5.609374-1.109374l-1.101563-.453126c-5.550781-2.28125-9.140625-7.632812-9.140625-13.640624v-10.175782l-3.828125-109.03125c-.039063-1.085937.367187-2.140625 1.121094-2.921875.753906-.78125 1.792969-1.21875 2.878906-1.21875h49.558594c1.125 0 2.195312.472657 2.953125 1.300781.757812.832032 1.132812 1.941407 1.03125 3.058594l-9.707032 106.539063 18.125 10.289062c2.902344 1.648438 4.703126 4.742188 4.703126 8.074219 0 5.125-4.167969 9.289062-9.289063 9.289062zm-53.230469-130.550781 3.683594 104.964844c.003906.042969.003906.09375.003906.136719v10.246094c0 2.75 1.640625 5.199218 4.179688 6.242187l1.105468.457031c.816407.335938 1.679688.503906 2.5625.503906h41.699219c.707031 0 1.285157-.574218 1.285157-1.285156 0-.460937-.25-.890625-.648438-1.121094l-20.371094-11.5625c-1.367187-.777343-2.152344-2.277343-2.011718-3.84375l9.546874-104.738281zm0 0" fill="#3762cc"/><path d="m315.941406 489.101562h-41.425781c-5.121094 0-9.285156-4.164062-9.285156-9.285156 0-3.335937 1.796875-6.429687 4.699219-8.074218l18.128906-10.292969-9.710938-106.535157c-.101562-1.121093.273438-2.230468 1.03125-3.058593.757813-.832031 1.832032-1.304688 2.953125-1.304688h49.558594c1.085937 0 2.125.441407 2.875 1.222657.753906.78125 1.160156 1.835937 1.125 2.917968l-3.828125 109.105469v9.183594c0 6.566406-3.921875 12.417969-9.996094 14.910156-1.949218.804687-4.007812 1.210937-6.125 1.210937zm-29.226562-130.550781 9.542968 104.742188c.144532 1.5625-.644531 3.066406-2.007812 3.839843l-20.371094 11.566407c-.398437.230469-.648437.65625-.648437 1.117187 0 .710938.574219 1.289063 1.285156 1.289063h41.425781c1.066406 0 2.105469-.207031 3.082032-.613281 3.0625-1.257813 5.042968-4.203126 5.042968-7.511719v-9.324219l3.683594-105.105469zm0 0" fill="#3762cc"/><path d="m410.78125 366.28125c-27.230469 0-49.382812-22.152344-49.382812-49.382812 0-27.226563 22.152343-49.382813 49.382812-49.382813s49.382812 22.15625 49.382812 49.382813c0 27.230468-22.152343 49.382812-49.382812 49.382812zm0-90.765625c-22.816406 0-41.382812 18.5625-41.382812 41.382813 0 22.816406 18.566406 41.382812 41.382812 41.382812 22.820312 0 41.382812-18.566406 41.382812-41.382812 0-22.820313-18.5625-41.382813-41.382812-41.382813zm0 0" fill="#f9a7a7"/><path d="m410.78125 342.28125c-13.996094 0-25.382812-11.386719-25.382812-25.382812 0-13.996094 11.386718-25.382813 25.382812-25.382813s25.382812 11.386719 25.382812 25.382813c0 13.996093-11.386718 25.382812-25.382812 25.382812zm0-42.765625c-9.585938 0-17.382812 7.796875-17.382812 17.382813 0 9.582031 7.796874 17.382812 17.382812 17.382812s17.382812-7.800781 17.382812-17.382812c0-9.585938-7.796874-17.382813-17.382812-17.382813zm0 0" fill="#f9a7a7"/><path d="m300.5625 445.359375c-27.230469 0-49.382812-22.152344-49.382812-49.382813 0-27.230468 22.152343-49.382812 49.382812-49.382812s49.382812 22.152344 49.382812 49.382812c0 27.230469-22.152343 49.382813-49.382812 49.382813zm0-90.765625c-22.820312 0-41.382812 18.5625-41.382812 41.382812 0 22.820313 18.5625 41.382813 41.382812 41.382813s41.382812-18.5625 41.382812-41.382813c0-22.820312-18.5625-41.382812-41.382812-41.382812zm0 0" fill="#f9a7a7"/><path d="m300.5625 421.359375c-13.996094 0-25.382812-11.386719-25.382812-25.382813 0-13.996093 11.386718-25.382812 25.382812-25.382812s25.382812 11.386719 25.382812 25.382812c0 13.996094-11.386718 25.382813-25.382812 25.382813zm0-42.765625c-9.585938 0-17.382812 7.796875-17.382812 17.382812 0 9.585938 7.796874 17.382813 17.382812 17.382813s17.382812-7.796875 17.382812-17.382813c0-9.585937-7.796874-17.382812-17.382812-17.382812zm0 0" fill="#f9a7a7"/><path d="m372.195312 223.914062c-27.226562 0-49.382812-22.152343-49.382812-49.382812s22.15625-49.382812 49.382812-49.382812c27.230469 0 49.382813 22.152343 49.382813 49.382812s-22.152344 49.382812-49.382813 49.382812zm0-90.769531c-22.816406 0-41.382812 18.566407-41.382812 41.382813 0 22.820312 18.566406 41.382812 41.382812 41.382812 22.820313 0 41.382813-18.5625 41.382813-41.382812 0-22.816406-18.5625-41.382813-41.382813-41.382813zm0 0" fill="#f9a7a7"/><path d="m372.195312 199.914062c-13.996093 0-25.382812-11.386718-25.382812-25.382812s11.386719-25.382812 25.382812-25.382812c13.996094 0 25.382813 11.386718 25.382813 25.382812s-11.386719 25.382812-25.382813 25.382812zm0-42.769531c-9.585937 0-17.382812 7.800781-17.382812 17.386719 0 9.582031 7.796875 17.378906 17.382812 17.378906 9.585938 0 17.382813-7.796875 17.382813-17.378906 0-9.585938-7.796875-17.386719-17.382813-17.386719zm0 0" fill="#f9a7a7"/><path d="m40.070312 220.664062h131.4375l71.671876 27.457032c3.636718 1.394531 7.207031-2.175782 5.816406-5.816406l-28.832032-75.257813v-126.476563c0-19.890624-16.125-36.015624-36.015624-36.015624h-144.078126c-19.890624 0-36.015624 16.125-36.015624 36.015624v144.078126c0 19.890624 16.125 36.015624 36.015624 36.015624zm0 0" fill="#a4c9ff"/><path d="m244.832031 252.433594c-1.027343 0-2.070312-.191406-3.082031-.574219l-70.980469-27.195313h-130.699219c-22.066406 0-40.0195308-17.953124-40.0195308-40.019531v-144.074219c.0039063-22.0625 17.9531248-40.019531 40.0195308-40.019531h144.078126c22.066406 0 40.015624 17.957031 40.015624 40.019531v125.738282l28.566407 74.566406c1.214843 3.175781.480469 6.644531-1.925781 9.054688-1.640626 1.640624-3.773438 2.503906-5.972657 2.503906zm-204.761719-243.882813c-17.65625 0-32.019531 14.363281-32.019531 32.019531v144.074219c0 17.65625 14.363281 32.019531 32.019531 32.019531h131.4375c.492188 0 .976563.09375 1.429688.269532l71.671875 27.457031c.097656.035156.304687.113281.535156-.117187.230469-.230469.152344-.433594.117188-.535157l-28.832031-75.257812c-.175782-.457031-.265626-.945313-.265626-1.433594v-126.476563c0-17.65625-14.363281-32.019531-32.015624-32.019531zm0 0" fill="#3762cc"/><path d="m38.207031 199.351562c-7.652343 0-13.878906-6.226562-13.878906-13.878906v-148.03125c0-7.652344 6.226563-13.878906 13.878906-13.878906h148.035157c7.652343 0 13.875 6.226562 13.875 13.878906v148.03125c0 7.652344-6.222657 13.878906-13.875 13.878906zm0 0" fill="#e0ebfc"/><path d="m195.847656 112.257812c0 6.113282-4.957031 11.070313-11.074218 11.070313-6.113282 0-11.074219-4.957031-11.074219-11.070313 0-6.117187 4.960937-11.074218 11.074219-11.074218 6.117187 0 11.074218 4.957031 11.074218 11.074218zm0 0" fill="#6bdddd"/><path d="m50.742188 112.257812c0 6.113282-4.957032 11.070313-11.074219 11.070313-6.113281 0-11.074219-4.957031-11.074219-11.070313 0-6.117187 4.960938-11.074218 11.074219-11.074218 6.117187 0 11.074219 4.957031 11.074219 11.074218zm0 0" fill="#6bdddd"/><path d="m123.359375 39.640625c0 6.117187-4.957031 11.074219-11.074219 11.074219-6.117187 0-11.074218-4.957032-11.074218-11.074219s4.957031-11.074219 11.074218-11.074219c6.117188 0 11.074219 4.957032 11.074219 11.074219zm0 0" fill="#6bdddd"/><path d="m123.359375 184.871094c0 6.117187-4.957031 11.074218-11.074219 11.074218-6.117187 0-11.074218-4.957031-11.074218-11.074218 0-6.113282 4.957031-11.074219 11.074218-11.074219 6.117188 0 11.074219 4.960937 11.074219 11.074219zm0 0" fill="#6bdddd"/><path d="m164.15625 112.257812c0 28.644532-23.222656 51.871094-51.871094 51.871094-28.648437 0-51.871094-23.226562-51.871094-51.871094 0-28.648437 23.222657-51.875 51.871094-51.875 28.648438 0 51.871094 23.226563 51.871094 51.875zm0 0" fill="#ffea92"/><path d="m153.234375 112.257812c0 22.613282-18.332031 40.949219-40.949219 40.949219-22.617187 0-40.949218-18.335937-40.949218-40.949219 0-22.617187 18.332031-40.953124 40.949218-40.953124 22.617188 0 40.949219 18.335937 40.949219 40.953124zm0 0" fill="#a4c9ff"/><path d="m72.011719 60.90625c0 6.117188-4.957031 11.074219-11.074219 11.074219-6.113281 0-11.074219-4.957031-11.074219-11.074219 0-6.113281 4.960938-11.070312 11.074219-11.070312 6.117188 0 11.074219 4.957031 11.074219 11.070312zm0 0" fill="#6bdddd"/><path d="m174.707031 163.601562c0 6.117188-4.957031 11.074219-11.074219 11.074219-6.117187 0-11.074218-4.957031-11.074218-11.074219 0-6.117187 4.957031-11.074218 11.074218-11.074218 6.117188 0 11.074219 4.957031 11.074219 11.074218zm0 0" fill="#6bdddd"/><path d="m174.707031 60.90625c0 6.117188-4.957031 11.074219-11.074219 11.074219-6.117187 0-11.074218-4.957031-11.074218-11.074219 0-6.113281 4.957031-11.070312 11.074218-11.070312 6.117188 0 11.074219 4.957031 11.074219 11.070312zm0 0" fill="#6bdddd"/><path d="m72.011719 163.601562c0 6.117188-4.957031 11.074219-11.074219 11.074219-6.113281 0-11.074219-4.957031-11.074219-11.074219 0-6.117187 4.960938-11.074218 11.074219-11.074218 6.117188 0 11.074219 4.957031 11.074219 11.074218zm0 0" fill="#6bdddd"/><g fill="#a4c9ff"><path d="m60.609375 107.882812h-10.765625c.578125 1.339844.902344 2.820313.902344 4.371094 0 1.386719-.265625 2.710938-.734375 3.933594h10.566406c-.097656-1.300781-.164063-2.609375-.164063-3.933594 0-1.472656.074219-2.925781.195313-4.371094zm0 0"/><path d="m112.285156 50.714844c-1.550781 0-3.03125-.324219-4.371094-.902344v10.765625c1.441407-.117187 2.898438-.195313 4.371094-.195313 1.324219 0 2.632813.066407 3.9375.164063v-10.566406c-1.226562.46875-2.550781.734375-3.9375.734375zm0 0"/><path d="m112.285156 173.796875c1.386719 0 2.710938.265625 3.9375.734375v-10.566406c-1.300781.097656-2.613281.164062-3.9375.164062-1.472656 0-2.929687-.078125-4.371094-.195312v10.765625c1.34375-.578125 2.820313-.902344 4.371094-.902344zm0 0"/><path d="m71.03125 65.4375c-.535156 1.195312-1.28125 2.320312-2.261719 3.300781-1.097656 1.097657-2.371093 1.914063-3.726562 2.453125l7.609375 7.613282c1.789062-2.117188 3.75-4.089844 5.851562-5.894532zm0 0"/><path d="m155.800781 155.773438c.980469-.984376 2.105469-1.730469 3.300781-2.265626l-7.472656-7.472656c-1.808594 2.105469-3.777344 4.0625-5.894531 5.851563l7.609375 7.609375c.542969-1.355469 1.359375-2.625 2.457031-3.722656zm0 0"/><path d="m155.800781 68.738281c-.980469-.980469-1.726562-2.105469-2.265625-3.296875l-7.46875 7.46875c2.101563 1.808594 4.0625 3.777344 5.847656 5.894532l7.609376-7.609376c-1.351563-.542968-2.625-1.359374-3.722657-2.457031zm0 0"/><path d="m68.769531 155.773438c1.097657 1.097656 1.914063 2.367187 2.453125 3.722656l7.609375-7.609375c-2.117187-1.789063-4.085937-3.75-5.894531-5.851563l-7.472656 7.472656c1.199218.535157 2.320312 1.28125 3.304687 2.265626zm0 0"/><path d="m163.984375 116.40625h10.765625c-.578125-1.339844-.898438-2.816406-.898438-4.367188 0-1.390624.265626-2.710937.730469-3.933593h-10.566406c.097656 1.296875.164063 2.605469.164063 3.933593 0 1.472657-.074219 2.925782-.195313 4.367188zm0 0"/></g><path d="m120.589844 142.09375h-16.609375c-4.078125 0-7.382813-3.304688-7.382813-7.382812v-46.449219c0-4.078125 3.304688-7.382813 7.382813-7.382813h16.609375c4.078125 0 7.382812 3.308594 7.382812 7.382813v46.449219c0 4.078124-3.304687 7.382812-7.382812 7.382812zm0 0" fill="#4671c6"/><path d="m104.289062 127.964844c-1.457031 0-2.636718-1.179688-2.636718-2.636719 0-3.804687 1.234375-5.859375 2.222656-7.507813.855469-1.421874 1.46875-2.449218 1.46875-4.796874 0-2.34375-.613281-3.375-1.46875-4.796876-.988281-1.648437-2.222656-3.703124-2.222656-7.507812s1.234375-5.855469 2.222656-7.507812c.855469-1.421876 1.46875-2.445313 1.46875-4.792969 0-1.457031 1.179688-2.636719 2.636719-2.636719s2.636719 1.179688 2.636719 2.636719c0 3.804687-1.230469 5.859375-2.222657 7.507812-.851562 1.421875-1.46875 2.449219-1.46875 4.792969 0 2.347656.613281 3.375 1.46875 4.796875.992188 1.648437 2.222657 3.703125 2.222657 7.511719 0 3.804687-1.230469 5.859375-2.222657 7.507812-.855469 1.421875-1.46875 2.449219-1.46875 4.796875 0 1.453125-1.179687 2.632813-2.636719 2.632813zm0 0" fill="#e0ebfc"/><path d="m116.15625 137.195312c-1.457031 0-2.636719-1.179687-2.636719-2.636718 0-3.804688 1.230469-5.859375 2.222657-7.511719.851562-1.421875 1.46875-2.449219 1.46875-4.792969 0-2.347656-.617188-3.375-1.46875-4.796875-.992188-1.652343-2.222657-3.703125-2.222657-7.511719 0-3.804687 1.230469-5.855468 2.222657-7.503906.851562-1.421875 1.46875-2.449218 1.46875-4.796875 0-1.453125 1.179687-2.632812 2.636718-2.632812 1.457032 0 2.636719 1.179687 2.636719 2.632812 0 3.808594-1.234375 5.859375-2.222656 7.507813-.851563 1.421875-1.472657 2.449218-1.472657 4.792968 0 2.347657.617188 3.375 1.472657 4.796876.988281 1.652343 2.222656 3.707031 2.222656 7.511718 0 3.804688-1.234375 5.859375-2.222656 7.511719-.855469 1.421875-1.472657 2.449219-1.472657 4.792969 0 1.457031-1.179687 2.636718-2.632812 2.636718zm0 0" fill="#e0ebfc"/><path d="m291.546875 314.03125c-27.230469 0-49.382813-22.15625-49.382813-49.386719s22.152344-49.378906 49.382813-49.378906 49.382813 22.148437 49.382813 49.378906-22.152344 49.386719-49.382813 49.386719zm0-90.769531c-22.820313 0-41.382813 18.5625-41.382813 41.382812 0 22.820313 18.5625 41.382813 41.382813 41.382813 22.816406 0 41.382813-18.5625 41.382813-41.382813 0-22.816406-18.566407-41.382812-41.382813-41.382812zm0 0" fill="#f9a7a7"/><path d="m291.546875 290.03125c-13.996094 0-25.382813-11.386719-25.382813-25.382812 0-14 11.386719-25.382813 25.382813-25.382813s25.382813 11.382813 25.382813 25.382813c0 13.996093-11.386719 25.382812-25.382813 25.382812zm0-42.769531c-9.585937 0-17.382813 7.796875-17.382813 17.382812 0 9.585938 7.796876 17.382813 17.382813 17.382813s17.382813-7.796875 17.382813-17.382813c0-9.582031-7.796876-17.382812-17.382813-17.382812zm0 0" fill="#f9a7a7"/></svg>