<svg height="512" viewBox="0 0 60 60" width="512" xmlns="http://www.w3.org/2000/svg"><g id="Page-1" fill="none" fill-rule="evenodd"><g id="013---No-Mosquitos" fill-rule="nonzero"><path id="Shape" d="m30 1c-16.0162577 0-29 12.9837423-29 29s12.9837423 29 29 29 29-12.9837423 29-29-12.9837423-29-29-29zm-25 29c.00097321-9.7485611 5.668525-18.6074081 14.5190052-22.69439279 8.8504803-4.08698469 19.2694168-2.65657431 26.6909948 3.66439279l-21.17 21.17-14.07 14.07c-3.85988084-4.5182251-5.97729805-10.2675271-5.97-16.21zm25 25c-5.9424729.007298-11.6917749-2.1101192-16.21-5.97l13.58-13.58 4.73-4.73 4.7-4.7h.01l12.22-12.23c6.3209671 7.421578 7.7513775 17.8405145 3.6643928 26.6909948-4.0869847 8.8504802-12.9458317 14.518032-22.6943928 14.5190052z" fill="#f44335"/><path id="Shape" d="m30 1c-.5033333 0-1.0033333.01266667-1.5.038 15.4192225.79012792 27.5158989 13.5225465 27.5158989 28.962s-12.0966764 28.1718721-27.5158989 28.962c.4973333.0253333.9973333.038 1.5.038 16.0162576-.0000002 28.9999996-12.9837424 28.9999996-29s-12.983742-28.99999976-28.9999996-29z" fill="#c81e1e"/><path id="Shape" d="m34 22.98c.003287.0738997-.0034407.1479045-.02.22l-1.62 1.62c-.5927555-.4721749-1.3142052-.7544813-2.07-.81-.1944499-.3079706-.2952027-.6658165-.29-1.03 0-1.1045695.8954305-1.9999999 2-1.9999999s2 .8954304 2 1.9999999z" fill="#3f51b5"/><path id="Shape" d="m30 22.98c.0040057.3640259-.0966534.7215393-.29 1.03-.7984718.0705346-1.5559882.3847119-2.17.9-1.0029875-.247878-1.6478613-1.2239978-1.4823825-2.2438234.1654788-1.0198257 1.0859138-1.7419555 2.1158198-1.6599724 1.0299059.081983 1.8245068.940634 1.8265627 1.9737958z" fill="#3f51b5"/><path id="Shape" d="m26.65 30.53-1.61 1.61c-1.9870227.2856704-3.9925874.4227173-6 .41h-.04c-.27 0-.53-.01-.79-.02-6.94-.23-9.29-3.48-9.29-6.73 0-3.37 3.37-1.68 7.59-.84 2.73.55 6.89 1.1 9.47 1.42h.44c-.2786659.5980638-.4220685 1.250204-.42 1.91-.000274.3264607.0366305.6518907.11.97.0809803.4589193.2656737.8932908.54 1.27z" fill="#02a9f4"/><path id="Shape" d="m32.36 24.82-5.71 5.71c-.2743263-.3767092-.4590197-.8110807-.54-1.27-.0733695-.3181093-.110274-.6435393-.11-.97-.0020685-.659796.1413341-1.3119362.42-1.91.2588064-.5675303.6415191-1.0698407 1.12-1.47.6140118-.5152881 1.3715282-.8294654 2.17-.9.1-.01.21-.01.31-.01.0901157-.0016621.1802542.0016763.27.01.7557948.0555187 1.4772445.3378251 2.07.81z" fill="#ff9801"/><path id="Shape" d="m33 42.53c0 5.81-1 7.47-3 7.47s-3-1.66-3-7.47c0-2.4.17-4.93.37-7.08l4.73-4.73c.03.24.07.55.12.9.4653625 3.6190646.7257779 7.2615414.78 10.91z" fill="#ffdc00"/><path id="Shape" d="m32.22 31.62c-.05-.35-.09-.66-.12-.9l-2.677 2.68c.3506277 3.0312594.5432216 6.0787163.577 9.13 0 4.1-.5 6.132-1.5 6.972.4224782.3434797.9559823.520603 1.5.498 2 0 3-1.66 3-7.47-.0542221-3.6484586-.3146375-7.2909354-.78-10.91z" fill="#fec108"/><path id="Shape" d="m51.08 25.8c0 3.25-2.35 6.5-9.29 6.73-.26.01-.52.02-.79.02h-.04c-2.9398563.0366478-5.8736834-.2755329-8.74-.93-.05-.35-.09-.66-.12-.9l4.7-4.7h.01c2.25-.3 4.8-.68 6.68-1.06 4.22-.84 7.59-2.53 7.59.84z" fill="#02a9f4"/><path id="Shape" d="m47.357 24.052c.5412375.4076064.8181765 1.0771629.723 1.748 0 3.2-2.286 6.391-8.974 6.71.591.024 1.2.04 1.854.04h.04c.27 0 .53-.01.79-.02 6.94-.23 9.29-3.48 9.29-6.73 0-2.237-1.49-2.241-3.723-1.748z" fill="#0377bc"/><g fill="#000"><path id="Shape" d="m30 0c-16.5685425 0-30 13.4314575-30 30s13.4314575 30 30 30 30-13.4314575 30-30c-.018737-16.5607751-13.4392249-29.98126296-30-30zm0 58c-15.463973 0-28-12.536027-28-28s12.536027-28 28-28 28 12.536027 28 28c-.0176345 15.4566626-12.5433374 27.9823655-28 28z"/><path id="Shape" d="m47.209 10.93c-.0110433-.2786191-.1379147-.5399742-.35-.721-5.2813268-4.50289157-12.1450852-6.70486853-19.060303-6.11477646s-13.306657 3.92316675-17.748697 9.25577646c-.0307497.0309233-.05884844.0643742-.084.1-8.04547055 9.7178871-7.94296521 23.8121615.243 33.412.1810258.2120853.4423809.3389567.721.35h.04c.2651948-.0000566.5195073-.1054506.707-.293l35.24-35.24c.1978206-.1978288.3037244-.4694794.292-.749zm-36.164 33.79c-6.75190565-8.6825345-6.72551529-20.8468435.064-29.5l6.349 2.114 2.353 5.487c.0690887.1589127.1787568.2968601.318.4l2.211 1.664c-2.012-.281-4.068-.6-5.635-.914-.832-.166-1.631-.365-2.376-.551-2.348-.587-4.2-1.048-5.426-.092-.70223448.6207208-1.06721115 1.5385462-.983 2.472 0 1.643.679 6.828 8.857 7.63l-1.26 1.32c-.1235369.1285895-.2099302.2882443-.25.462l-1.616 6.9zm15.955-21.738c0-.5522847.4477153-1 1-1s1 .4477153 1 1c-.0029701.0450216-.0089839.0897906-.018.134-.5531034.1280323-1.078982.3535539-1.553.666-.2663874-.1794137-.4269518-.4788344-.429-.8zm5.215.569c-.3784543-.1977616-.7822038-.3427749-1.2-.431-.0084855-.0462271-.0134995-.0930245-.015-.14.0060441-.5465397.4534498-.9849973 1-.98.4718621.0035838.874317.3426038.958.807zm-5.168 5.168c-.0250865-.140802-.0407878-.2831156-.047-.426-.0706513-1.7400528 1.2764509-3.2108776 3.016-3.293.222578.003052.4439244.0336173.659.091zm-7.613 4.824c1-.007 1.967-.04 2.894-.1l-6 5.995.819-3.5zm5.14-2.351c-1.847521.2477318-3.7099674.3673507-5.574.358-.256 0-.5-.009-.757-.02-5.289-.175-8.323-2.264-8.323-5.73-.04234385-.3123524.03401976-.6292257.214-.888.457-.357 2.261.094 3.711.456.774.194 1.6.4 2.467.572 2.435.491 5.985.982 8.785 1.336-.064348.3352309-.0978214.6756561-.1 1.017-.0016555.3979866.041958.7948703.13 1.183.0652708.3019435.158334.5972015.278.882zm9.9-9.9c-.765081-1.1247113-2.1987617-1.5823831-3.474-1.109v-6.183c0-.5522847-.4477153-1-1-1s-1 .4477153-1 1v6.183c-.9137318-.3363534-1.9342563-.2039655-2.7319204.3543994-.7976642.5583649-1.2713626 1.471933-1.2680796 2.4456006.0002626.7410276.2790261 1.4548907.781 2l-4.237-3.188-2.425-5.655c-.1118157-.2620186-.330076-.4639093-.6-.555l-6-2c8.4658066-9.03746249 22.4223966-10.13795262 32.2-2.539z"/><path id="Shape" d="m48.323 13.083-28.074 28.074-7.165 7.165c-.1972979.1972389-.3032331.467929-.2922194.7466912.0110138.2787622.1379751.5402507.3502194.7213088 5.4588669 4.6531016 12.5986145 6.8422451 19.727492 6.0487167 7.1288776-.7935285 13.6124724-4.4991111 17.914508-10.2387167.011-.012.027-.016.037-.028.0153504-.0245632.0293706-.0499331.042-.076 7.2313724-9.7161322 6.7866078-23.1408047-1.072-32.357-.1810258-.2120853-.4423809-.3389567-.721-.35-.2784737-.0068314-.5478828.0992011-.747.294zm-7.363 18.467c-2.2784923.0130703-4.5537823-.1726335-6.8-.555l-.449-.468 3.56-3.56c1.909-.257 4.462-.631 6.419-1.026.865-.172 1.7-.379 2.469-.573 1.45-.361 3.255-.812 3.711-.456.1799802.2587743.2563438.5756476.214.888 0 3.466-3.034 5.555-8.33 5.731-.254.01-.498.019-.794.019zm-8.96 10.98c0 6.47-1.3 6.47-2 6.47s-2 0-2-6.47c0-1.935.115-4.17.336-6.632l3.018-3.018c.3891619 3.2026668.6048102 6.4240389.646 9.65zm-12.082 1.786.519 4.944-1.408 2.069c-1.3203943-.6740782-2.5754343-1.4691489-3.749-2.375zm.952 7.862 1.43-2.095c.1331078-.1954737.1926312-.4317959.168-.667l-.715-6.8.079-.208 4.334-4.334c-.108 1.602-.166 3.103-.166 4.456 0 5.084.68 8.47 4 8.47s4-3.386 4-8.47c-.0365001-3.1558953-.2401186-6.3076428-.61-9.442l2.027 2.118 2.833 7.407-.715 6.8c-.0250919.2358353.035226.4728491.17.668l1.437 2.1c-5.8505575 2.4213932-12.423565 2.4185154-18.272-.008zm20.109-.847-1.416-2.072.7-6.675c.0159116-.1563213-.0049787-.314197-.061-.461l-2.99-7.82c-.0472019-.1245998-.1193411-.2382532-.212-.334l-.625-.653c1.3266667.1333333 2.7223333.2083333 4.187.225l2.3 2.407 1.438 5.236c.0548214.1954075.167408.3696902.323.5l4.037 3.386c-2.1000867 2.5954405-4.7154567 4.7273024-7.681 6.261zm13.021-21.331c.0052673 4.8023311-1.438665 9.4945011-4.143 13.463l-3.715-3.109-1.418-5.178c-.042969-.1601146-.1258938-.3066954-.241-.426l-1.26-1.32c8.178-.8 8.857-5.987 8.857-7.63.0815954-.9307419-.2831481-1.8450125-.983-2.464-1.225-.957-3.078-.495-5.426.092-.745.186-1.544.385-2.379.552-1.1.222-2.4.438-3.668.63l9.331-9.33c3.2697734 4.2102123 5.0447769 9.3892115 5.045 14.72z"/></g></g></g></svg>