<svg id="Capa_1" enable-background="new 0 0 512 512" height="512" viewBox="0 0 512 512" width="512" xmlns="http://www.w3.org/2000/svg"><g><g><g><path d="m97.097 319.693-6.858-148.148c-2.037-43.995 24.973-84.134 66.494-98.819l23.733-8.394-17.994 32.014c-12.58 22.382-19.766 47.391-20.986 73.037l-2.981 62.685c-1.03 21.653-7.114 42.763-17.767 61.642l-15.724 27.867c-2.089 3.703-7.72 2.362-7.917-1.884z" fill="#c56e37"/></g><g><path d="m167.276 68.997-16.65 23.765c-14.732 21.028-24.356 45.203-28.107 70.603l-9.167 62.083c-2.671 18.087-8.894 35.428-18.254 51.057l1.999 43.188c.197 4.246 5.828 5.587 7.917 1.885l15.724-27.867c10.652-18.879 16.737-39.99 17.767-61.642l2.981-62.685c1.22-25.646 8.406-50.655 20.986-73.037l17.994-32.014z" fill="#8f4e24"/></g><g><circle cx="156.64" cy="83.19" fill="#da4a54" r="18.858"/></g><g><path d="m160.85 64.82c1.677 2.818 2.657 6.099 2.657 9.617 0 10.415-8.443 18.858-18.858 18.858-1.449 0-2.854-.179-4.21-.488 3.288 5.527 9.303 9.241 16.201 9.241 10.415 0 18.858-8.443 18.858-18.858.001-8.965-6.262-16.455-14.648-18.37z" fill="#d82e3d"/></g><g><path d="m150.807 504.209h183.674c1.342 0 2.303-1.296 1.914-2.58l-5.12-16.884c-2.255-7.434 1.49-15.42 8.7-18.311.145-.058.254-.099.322-.119 46.327-14.063 76.072-53.566 66.582-103.757-10.596-56.044-55.691-79.574-83.037-88.69-1.348-.449-1.654-2.201-.539-3.083.165-.131.329-.263.492-.397 14.58-11.982 18.047-33.286 7.841-49.16-5.756-8.953-14.429-14.536-23.785-16.54-20.318-4.351-38.291-16.083-49.404-33.64l-20.829-32.905h-11.927c-25.725 0-48.708 16.075-57.532 40.239l-1.156 3.166c-4.868 13.33-4.956 27.936-.249 41.324l12.632 35.931c2.295 6.527 3.467 13.396 3.467 20.315v35.61c0 14.739-7.95 28.485-20.986 35.361-24.719 13.039-41.568 38.991-41.568 68.881 0 11.602 2.543 22.609 7.095 32.501l21.569 51.511c.311.743 1.038 1.227 1.844 1.227z" fill="#da4a54"/></g><g><path d="m406.879 362.558c-10.596-56.044-55.691-79.574-83.037-88.69-1.348-.449-1.654-2.201-.539-3.083.165-.131.329-.263.492-.397 14.58-11.982 18.047-33.286 7.841-49.16-5.756-8.953-14.429-14.536-23.785-16.54-20.318-4.351-38.291-16.083-49.404-33.64l-20.829-32.905h-11.927c-5.768 0-11.395.814-16.759 2.34l19.347 30.565c11.113 17.557 29.086 29.289 49.404 33.64 9.357 2.004 18.029 7.586 23.785 16.54 10.206 15.874 6.739 37.178-7.841 49.16-.163.134-.327.266-.492.397-1.114.882-.809 2.633.539 3.083 27.346 9.116 72.441 32.646 83.037 88.69 9.49 50.191-20.255 89.694-66.582 103.757-.067.02-.177.061-.322.119-7.21 2.891-10.954 10.877-8.7 18.311l5.903 19.464h27.47c1.342 0 2.303-1.296 1.914-2.58l-5.12-16.884c-2.255-7.434 1.49-15.42 8.7-18.311.145-.058.254-.099.322-.119 46.328-14.063 76.073-53.566 66.583-103.757z" fill="#d82e3d"/></g><g><path d="m232.055 167.511-37.1-12.514c-1.826-.616-2.807-2.595-2.191-4.421l22.039-65.338 54.159 18.268-18.515 54.892c-2.563 7.595-10.797 11.675-18.392 9.113z" fill="#ffa68d"/></g><g><path d="m252.357 97.905-19.835 58.805c-1.302 3.859-4.071 6.804-7.473 8.438l7.006 2.363c7.595 2.562 15.829-1.518 18.391-9.114l18.515-54.892z" fill="#f59380"/></g><g><path d="m294.503 75.9-11.33-5.971-3.006-14.362-.01.002c-5.389-28.305-31.035-49.43-61.29-47.682-29.196 1.686-53 25.044-55.188 54.207-2.593 34.555 24.676 63.394 58.681 63.394.166 0 .506.715.931 1.812 2.65 6.85 9.235 11.375 16.579 11.375h37.214c10.558 0 18.445-9.709 16.282-20.043l-5.803-27.728 7.593-5.433c3.409-2.439 3.057-7.616-.653-9.571z" fill="#ffa68d"/></g><g><path d="m262.185 23.333c-11.267-10.373-26.583-16.413-43.318-15.446-29.196 1.686-53 25.044-55.188 54.207-1.884 25.106 12.003 47.182 32.776 57.385l11.104-3.831c7.486-2.583 12.669-9.433 13.119-17.339l.8-14.047c.777-13.641 6.523-26.525 16.153-36.217z" fill="#c56e37"/></g><g><path d="m294.503 75.9-11.33-5.971-3.006-14.362-.01.002c-5.389-28.305-31.035-49.43-61.29-47.682-.473.027-.941.076-1.411.115 26.44 2.241 47.889 21.965 52.763 47.568l.01-.002 3.006 14.362 11.33 5.971c3.71 1.955 4.063 7.132.652 9.572l-4.796 3.432c-1.7 1.216-2.521 3.322-2.092 5.368l5.099 24.362c2.163 10.334-5.724 20.043-16.282 20.043h9.938c10.558 0 18.445-9.708 16.282-20.043l-5.803-27.728 7.593-5.433c3.409-2.442 3.056-7.619-.653-9.574z" fill="#f59380"/></g><g><path d="m218.867 7.887c-2.382.138-4.723.434-7.025.851 9.252 1.668 17.755 5.489 24.962 10.938 2.426 1.834 2.638 5.412.494 7.569l-20.667 20.801c-9.63 9.692-15.376 22.576-16.153 36.217l-.8 14.047c-.408 7.171-4.718 13.461-11.1 16.499 2.492 1.75 5.121 3.318 7.876 4.671l11.104-3.831c7.486-2.583 12.669-9.433 13.119-17.339l.8-14.047c.777-13.641 6.523-26.525 16.153-36.218l24.553-24.712c-11.265-10.373-26.581-16.413-43.316-15.446z" fill="#8f4e24"/></g><g><g><path d="m291.624 340.49c-2.507-1.403-5.118-2.419-7.768-3.075-3.311-.82-5.951-3.306-6.78-6.615l-30.16-120.442c-4.007-16.004-21.039-24.969-36.5-19.212-14.066 5.237-21.394 20.732-16.516 34.927l43.428 126.393c3.135 9.123 10.224 16.341 19.289 19.638l118.201 42.998 10.231-22.337z" fill="#ffa68d"/></g><g><path d="m291.624 340.49c-2.507-1.403-5.118-2.419-7.768-3.075-3.311-.82-5.951-3.306-6.78-6.615l-30.16-120.442c-4.007-16.004-21.039-24.969-36.5-19.212-1.419.528-2.766 1.166-4.043 1.891 10.203 1.941 18.977 9.571 21.707 20.472l30.159 120.442c.829 3.309 3.469 5.795 6.78 6.615 2.65.656 5.261 1.673 7.768 3.075l93.426 52.275-6.304 13.763 14.908 5.423 10.231-22.337z" fill="#f59380"/></g><g><path d="m419.824 410.557-1.83-2.789c-5.746-8.756-14.14-15.447-23.957-19.096l-2.385-.887 8.131-3.511c1.168-.504 2.036-1.522 2.349-2.755.643-2.531-1.213-5.01-3.823-5.106l-13-.478c-2.771-.102-5.52.534-7.965 1.842l-8.356 4.47c-7.15 1.154-13.496 6.001-16.199 13.275-4.001 10.764 1.481 22.734 12.246 26.736l16.481 6.126c8.592 3.194 17.906 3.92 26.889 2.097l3.405-.691c8.72-1.77 12.897-11.791 8.014-19.233z" fill="#ffa68d"/></g><g><path d="m419.824 410.557-1.83-2.789c-5.746-8.756-14.14-15.447-23.957-19.096l-2.385-.887 8.131-3.511c1.168-.504 2.036-1.522 2.349-2.755.643-2.531-1.213-5.01-3.823-5.106l-13-.478c-2.771-.102-5.52.534-7.965 1.842l-8.356 4.47c-.487.079-.97.178-1.449.29l5.849 2.174c9.817 3.649 18.211 10.34 23.957 19.096l1.83 2.789c4.884 7.442.707 17.463-8.017 19.234l-3.405.691c-2.862.581-5.756.9-8.651.966l2.412.897c8.592 3.194 17.906 3.92 26.889 2.097l3.405-.691c8.722-1.77 12.899-11.791 8.016-19.233z" fill="#f59380"/></g></g></g><g><path d="m190.278 279.143c0-7.794-1.311-15.474-3.896-22.827l-12.647-35.972c-4.323-11.773-3.822-27.169 1.377-39.473 2.944-8.062 7.659-15.146 13.823-20.879 1.022.86 2.211 1.554 3.551 2.007l37.142 12.529c2.327.785 4.695 1.158 7.026 1.158 4.773 0 9.377-1.575 13.143-4.362l1.455 2.299c12.41 19.606 32.049 33.243 55.299 38.398 6.572 1.458 12.321 4.977 16.626 10.178 10.572 12.776 8.78 31.77-4.01 42.353-.152.126-.304.249-.456.37-2.677 2.12-3.973 5.524-3.383 8.884.591 3.364 2.974 6.126 6.218 7.207 11.086 3.696 21.436 8.568 30.763 14.483 1.247.791 2.639 1.168 4.014 1.168 2.486 0 4.918-1.234 6.348-3.488 2.221-3.502 1.182-8.141-2.32-10.362-7.881-4.998-16.401-9.32-25.42-12.898 5.641-6.872 9.114-15.259 9.968-24.308 1.132-11.99-2.474-23.704-10.153-32.984-6.455-7.799-15.079-13.077-24.944-15.265-19.318-4.283-35.605-15.565-45.861-31.768l-5.245-8.287 3.795-11.252h14.616c7.31 0 14.145-3.254 18.754-8.927 4.608-5.673 6.393-13.03 4.895-20.184l-4.806-22.965 3.618-2.59c3.736-2.673 5.78-7.006 5.468-11.59-.313-4.583-2.926-8.599-6.99-10.741l-8.218-4.331-2.285-10.92c-.02-.094-.041-.187-.064-.279-2.628-13.687-10.534-27.423-20.931-36.56-12.811-11.425-29.955-17.905-48.156-16.854-31.456 1.817-57.223 25.752-61.765 56.499-.033 0-.066-.003-.099-.003-12.493 0-22.979 8.73-25.696 20.407-31.587 20.795-50.036 56.862-48.281 94.782l6.866 148.315c.244 5.285 3.867 9.659 9.014 10.885 3.91.927 9.714-.393 12.952-5.656l15.741-27.899c11.184-19.82 17.666-42.312 18.748-65.044l2.985-62.756c1.023-21.526 6.321-42.206 15.734-61.527 1.588-.511 3.121-1.176 4.584-1.976 6.177 8.287 14.276 15.17 23.817 19.877.006.003.011.007.016.01l-5.379 15.946c-12.338 8.176-21.54 19.826-26.623 33.746l-1.158 3.17c-5.456 14.94-5.555 31.431-.28 46.435l12.647 35.972c2.021 5.749 3.046 11.753 3.046 17.846v35.652c0 12.207-6.516 23.227-17.004 28.76-28.14 14.843-45.621 43.811-45.621 75.6 0 12.396 2.603 24.358 7.735 35.555l22.059 52.681c1.205 2.878 3.993 4.611 6.929 4.611.967 0 1.949-.188 2.897-.585 3.825-1.601 5.628-6.001 4.026-9.826l-22.108-52.799c-.034-.08-.068-.16-.105-.24-4.257-9.249-6.415-19.14-6.415-29.397 0-26.202 14.411-50.081 37.61-62.317 15.43-8.14 25.015-24.249 25.015-42.043v-35.649zm82.648-221.878 2.928 13.991c.458 2.19 1.869 4.061 3.849 5.104l8.671 4.57-5.145 3.681c-2.421 1.732-3.59 4.731-2.98 7.644l1.876 8.963c-2.451 1.982-4.689 4.428-4.29 5.88.348 1.93 3.976 4.768 6.87 6.445l1.354 6.472c.957 3.945-2.334 11.093-8.951 11.018h-20.008c-3.222 0-6.085 2.056-7.114 5.108l-6.66 19.745c-1.237 3.669-5.226 5.649-8.898 4.41l-33.337-11.245 8.366-24.804c.18-.533.29-1.072.348-1.609l.148-.051c10.419-3.593 17.555-13.025 18.182-24.029l.801-14.063c.674-11.836 5.647-22.985 14.002-31.394l19.122-19.245c5.309 6.443 9.101 14.235 10.749 22.89.032.176.071.348.117.519zm-116.804 14.38c.611 7.519 2.496 14.784 5.476 21.524-1.551.775-3.268 1.197-5.07 1.197-6.27 0-11.371-5.101-11.371-11.371 0-6.132 4.884-11.134 10.965-11.35zm-22.265 97.283-2.985 62.756c-.97 20.403-6.788 40.59-16.826 58.378l-10.154 17.995-6.34-136.955c-1.387-29.956 11.881-58.565 35.094-76.896 3.043 6.457 8.629 11.484 15.459 13.791-8.446 19.29-13.24 39.737-14.248 60.931zm37.205-106.491c1.914-25.508 22.634-45.857 48.196-47.335 11.572-.667 22.587 2.596 31.65 8.671l-18.624 18.744c-10.945 11.015-17.459 25.621-18.342 41.124l-.801 14.063c-.279 4.894-3.453 9.089-8.086 10.688l-8.032 2.771c-17.062-9.685-27.469-28.636-25.961-48.726z"/><ellipse cx="264.424" cy="74.232" rx="7.151" ry="7.151" transform="matrix(.707 -.707 .707 .707 24.958 208.718)"/><path d="m426.286 406.612c-2.517-4.064-6.198-9.049-10.736-13.309 1.32-10.33.946-21.079-1.122-32.019-3.833-20.271-12.267-38.242-25.068-53.416-2.673-3.171-7.411-3.572-10.581-.897-3.169 2.674-3.571 7.411-.897 10.58 11.113 13.172 18.444 28.825 21.79 46.523.328 1.737.589 3.463.818 5.184-.573-.108-1.153-.19-1.746-.212l-13.016-.479c-4.1-.14-8.177.793-11.792 2.727l-6.142 3.286-72.464-40.545c-3.04-1.702-6.284-2.986-9.639-3.816-.525-.13-1.145-.503-1.309-1.159l-30.192-120.577c-2.43-9.706-8.902-17.946-17.756-22.607-8.855-4.661-19.311-5.332-28.689-1.84-18.04 6.717-27.271 26.239-21.016 44.443l43.477 126.534c3.894 11.332 12.585 20.181 23.845 24.277l91.775 33.385c2.815 7.753 8.829 13.878 16.713 16.808l16.381 6.089c-10.624 10.73-24.498 18.874-40.715 23.796-.188.057-.495.16-.931.333-10.715 4.298-16.47 16.368-13.1 27.48l2.972 9.798h-140.759c-4.147 0-7.508 3.361-7.508 7.508s3.362 7.508 7.508 7.508h150.883c2.377 0 4.615-1.126 6.031-3.036 1.416-1.909 1.844-4.377 1.155-6.652l-5.909-19.486c-1.12-3.694.736-7.691 4.251-9.156 21.88-6.683 40.159-18.6 53.124-34.576.954.048 26.164.887 32.114-13.715 2.519-6.182 1.915-13.177-1.75-18.762zm-12.113 12.988c-2.495 6.864-20.911 4.902-29.902 1.941l-16.5-6.133c-4.356-1.619-7.498-5.33-8.404-9.927-.508-2.579-2.329-4.706-4.8-5.604l-95.382-34.697c-6.978-2.539-12.364-8.023-14.777-15.045l-43.478-126.535c-3.588-10.44 1.707-21.637 12.054-25.49 2.318-.862 4.705-1.292 7.08-1.292 3.217 0 6.41.787 9.375 2.347 5.152 2.712 8.769 7.317 10.183 12.966l30.194 120.578c1.49 5.95 6.19 10.581 12.269 12.087 2.054.508 4.043 1.296 5.912 2.342l75.478 42.232c2.103.411 4.188 2.742 9.18-.36l8.366-4.477c1.273-.681 2.707-1.012 4.156-.96l.502.019c-.919 1.295-1.423 2.877-1.38 4.535.079 3.066 2.015 5.776 4.89 6.845 4.038 1.375 8.929 3.601 13.48 7.065 3.623 3.556 13.999 10.699 11.504 17.563z"/></g></g></svg>