<svg width="29" height="29" viewBox="0 0 29 29" fill="none" xmlns="http://www.w3.org/2000/svg">
<g clip-path="url(#clip0)">
<path d="M20.3985 0.981079H8.85247C7.74747 0.981079 6.85547 1.87708 6.85547 2.98008V26.4261C6.85547 27.5281 7.74747 28.4231 8.85247 28.4231H20.3985C21.5015 28.4231 22.3955 27.5281 22.3955 26.4261V2.98008C22.3955 1.87708 21.5015 0.981079 20.3985 0.981079ZM11.7765 2.19508H17.4765C17.6205 2.19508 17.7375 2.41008 17.7375 2.67608C17.7375 2.94208 17.6205 3.15808 17.4765 3.15808H11.7765C11.6315 3.15808 11.5165 2.94208 11.5165 2.67608C11.5165 2.41008 11.6315 2.19508 11.7765 2.19508ZM14.6265 26.4501C13.9235 26.4501 13.3515 25.8781 13.3515 25.1741C13.3515 24.4701 13.9235 23.9001 14.6265 23.9001C15.3275 23.9001 15.8995 24.4701 15.8995 25.1741C15.8995 25.8781 15.3275 26.4501 14.6265 26.4501ZM20.8995 22.0811H8.35247V4.35408H20.8995V22.0811Z" fill="#C1C0C0"/>
</g>
<defs>
<clipPath id="clip0">
<rect x="0.904297" y="0.981079" width="27.442" height="27.442" fill="white"/>
</clipPath>
</defs>
</svg>
