<svg width="30" height="27" viewBox="0 0 30 27" fill="none" xmlns="http://www.w3.org/2000/svg">
<path d="M2.29761 4.36041C3.33314 4.36041 4.17261 3.52095 4.17261 2.48541V1.86041C4.17261 1.17006 4.73225 0.610413 5.42261 0.610413C6.11296 0.610413 6.67261 1.17006 6.67261 1.86041V2.48541C6.67261 3.52095 7.51207 4.36041 8.54761 4.36041H9.17261C9.86296 4.36041 10.4226 4.92006 10.4226 5.61041C10.4226 6.30077 9.86296 6.86041 9.17261 6.86041H8.54761C7.51207 6.86041 6.67261 7.69988 6.67261 8.73541V9.36041C6.67261 10.0508 6.11296 10.6104 5.42261 10.6104C4.73225 10.6104 4.17261 10.0508 4.17261 9.36041V8.73541C4.17261 7.69988 3.33314 6.86041 2.29761 6.86041H1.67261C0.982251 6.86041 0.422607 6.30077 0.422607 5.61041C0.422607 4.92006 0.982252 4.36041 1.67261 4.36041H2.29761ZM6.04761 11.8604C7.08314 11.8604 7.92261 11.0209 7.92261 9.98541C7.92261 8.94988 8.76207 8.11041 9.79761 8.11041C10.8331 8.11041 11.6726 7.27095 11.6726 6.23541C11.6726 5.19988 12.5121 4.36041 13.5476 4.36041H18.7283C19.8078 4.36041 20.8376 4.81399 21.5664 5.61041C22.2951 6.40683 23.3249 6.86041 24.4044 6.86041H26.6726C28.0476 6.86041 29.1726 7.98541 29.1726 9.36041V24.3604C29.1726 25.7354 28.0476 26.8604 26.6726 26.8604H6.67261C5.29761 26.8604 4.17261 25.7354 4.17261 24.3604V13.7354C4.17261 12.6999 5.01207 11.8604 6.04761 11.8604ZM16.6726 23.1104C20.1226 23.1104 22.9226 20.3104 22.9226 16.8604C22.9226 13.4104 20.1226 10.6104 16.6726 10.6104C13.2226 10.6104 10.4226 13.4104 10.4226 16.8604C10.4226 20.3104 13.2226 23.1104 16.6726 23.1104ZM12.6726 16.8604C12.6726 19.0729 14.4601 20.8604 16.6726 20.8604C18.8851 20.8604 20.6726 19.0729 20.6726 16.8604C20.6726 14.6479 18.8851 12.8604 16.6726 12.8604C14.4601 12.8604 12.6726 14.6479 12.6726 16.8604Z" fill="url(#paint0_linear)"/>
<defs>
<linearGradient id="paint0_linear" x1="0.422608" y1="13.7354" x2="29.1726" y2="13.7354" gradientUnits="userSpaceOnUse">
<stop stop-color="#1877F2"/>
<stop offset="1" stop-color="#00AAFF"/>
</linearGradient>
</defs>
</svg>
