<svg width="40" height="41" viewBox="0 0 40 41" fill="none" xmlns="http://www.w3.org/2000/svg">
<g clip-path="url(#clip0)">
<path d="M22.0616 22.3354L36.7275 22.3354C37.8981 22.336 38.8469 21.3872 38.8463 20.2166C38.8469 19.046 37.8987 18.0978 36.7275 18.0978L22.0616 18.0977L22.061 3.43117C22.0622 2.26118 21.1127 1.31171 19.9422 1.31234C18.7721 1.31234 17.8233 2.26118 17.8233 3.43117L17.8239 18.0977L3.12434 18.0977C1.95314 18.0977 1.00488 19.046 1.00551 20.2165C1.00488 20.8021 1.24226 21.332 1.62588 21.7156C2.00888 22.0986 2.53874 22.336 3.12439 22.3354L17.8239 22.3354L17.8239 37.0014C17.8245 37.587 18.0606 38.1169 18.4442 38.5005C18.8272 38.8835 19.3577 39.1202 19.9427 39.1203C21.1134 39.1208 22.0616 38.1726 22.0616 37.0014L22.0616 22.3354Z" fill="white"/>
</g>
<defs>
<clipPath id="clip0">
<rect x="19.9258" y="0.41748" width="28" height="28" transform="rotate(45 19.9258 0.41748)" fill="white"/>
</clipPath>
</defs>
</svg>
