<svg width="23" height="22" viewBox="0 0 23 22" fill="none" xmlns="http://www.w3.org/2000/svg">
<g clip-path="url(#clip0)">
<path d="M11.8939 0C11.4301 0 11.0542 0.375891 11.0542 0.839695V14.1628C11.0542 14.6266 11.4301 15.0025 11.8939 15.0025C12.3577 15.0025 12.7336 14.6266 12.7336 14.1628V0.839695C12.7336 0.375891 12.3577 0 11.8939 0Z" fill="#838383"/>
<path d="M17.1135 4.56432L12.4672 0.225891C12.1445 -0.0752767 11.6438 -0.0752767 11.321 0.225891L6.6747 4.56432C6.33576 4.88087 6.31729 5.41214 6.63384 5.75107C6.79897 5.92823 7.02318 6.01782 7.24765 6.01782C7.45308 6.01782 7.65881 5.9431 7.82059 5.79194L11.8939 1.98838L15.9673 5.79194C16.3068 6.10849 16.8377 6.09001 17.154 5.75107C17.4704 5.41214 17.4525 4.88087 17.1135 4.56432Z" fill="#838383"/>
<path d="M20.2907 7.16538H15.8123C15.3485 7.16538 14.9726 7.54127 14.9726 8.00508C14.9726 8.46888 15.3485 8.84477 15.8123 8.84477H19.451V20.3206H4.05659V8.84477H7.69527C8.15907 8.84477 8.53496 8.46888 8.53496 8.00508C8.53496 7.54127 8.15907 7.16538 7.69527 7.16538H3.21689C2.75309 7.16538 2.3772 7.54127 2.3772 8.00508V21.1603C2.3772 21.6241 2.75309 22 3.21689 22H20.2907C20.7545 22 21.1304 21.6241 21.1304 21.1603V8.00508C21.1304 7.54132 20.7545 7.16538 20.2907 7.16538Z" fill="#838383"/>
</g>
<defs>
<clipPath id="clip0">
<rect x="0.753906" width="22" height="22" fill="white"/>
</clipPath>
</defs>
</svg>
